<svg xmlns="http://www.w3.org/2000/svg" viewBox="0 0 44.99 42.54"><defs><style>.cls-1{fill:#04014e;fill-rule:evenodd;}</style></defs><g id="Capa_2" data-name="Capa 2"><g id="Header"><g id="icon"><polygon class="cls-1" points="5.17 0 39.84 0 40.58 0.05 41.33 0.17 42.01 0.38 42.64 0.63 43.22 0.96 43.72 1.36 44.15 1.8 44.51 2.28 44.76 2.81 44.94 3.37 44.99 3.94 44.94 4.52 44.76 5.08 44.51 5.6 44.15 6.08 43.72 6.52 43.22 6.92 42.64 7.25 42.01 7.51 41.33 7.72 40.58 7.84 39.84 7.88 5.17 7.88 4.39 7.84 3.67 7.72 2.99 7.51 2.34 7.25 1.77 6.92 1.26 6.52 0.83 6.08 0.46 5.6 0.21 5.08 0.05 4.52 0 3.94 0.05 3.37 0.21 2.81 0.46 2.28 0.83 1.8 1.26 1.36 1.77 0.96 2.34 0.63 2.99 0.38 3.67 0.17 4.39 0.05 5.17 0 5.17 0 5.17 0"/><polygon class="cls-1" points="5.17 17.33 39.84 17.33 40.58 17.39 41.33 17.51 42.01 17.71 42.64 17.98 43.22 18.31 43.72 18.69 44.15 19.13 44.51 19.61 44.76 20.14 44.94 20.7 44.99 21.27 44.94 21.86 44.76 22.41 44.51 22.93 44.15 23.42 43.72 23.86 43.22 24.25 42.64 24.58 42.01 24.85 41.33 25.05 40.58 25.17 39.84 25.21 5.17 25.21 4.39 25.17 3.67 25.05 2.99 24.85 2.34 24.58 1.77 24.25 1.26 23.86 0.83 23.42 0.46 22.93 0.21 22.41 0.05 21.86 0 21.27 0.05 20.7 0.21 20.14 0.46 19.61 0.83 19.13 1.26 18.69 1.77 18.31 2.34 17.98 2.99 17.71 3.67 17.51 4.39 17.39 5.17 17.33 5.17 17.33 5.17 17.33"/><polygon class="cls-1" points="5.17 34.66 39.84 34.66 40.58 34.71 41.33 34.83 42.01 35.04 42.64 35.29 43.22 35.62 43.72 36.02 44.15 36.46 44.51 36.94 44.76 37.47 44.94 38.03 44.99 38.6 44.94 39.18 44.76 39.74 44.51 40.26 44.15 40.74 43.72 41.18 43.22 41.58 42.64 41.91 42.01 42.17 41.33 42.38 40.58 42.5 39.84 42.54 5.17 42.54 4.39 42.5 3.67 42.38 2.99 42.17 2.34 41.91 1.77 41.58 1.26 41.18 0.83 40.74 0.46 40.26 0.21 39.74 0.05 39.18 0 38.6 0.05 38.03 0.21 37.47 0.46 36.94 0.83 36.46 1.26 36.02 1.77 35.62 2.34 35.29 2.99 35.04 3.67 34.83 4.39 34.71 5.17 34.66 5.17 34.66 5.17 34.66"/></g></g></g></svg>