<svg xmlns="http://www.w3.org/2000/svg" viewBox="0 0 34.8 34.8"><defs><style>.cls-1{opacity:0.8;}.cls-2{fill:#231f20;fill-rule:evenodd;}</style></defs><g id="Capa_2" data-name="Capa 2"><g id="Header"><g id="Icon" class="cls-1"><path class="cls-2" d="M18.94,7.91h-.5L18,8l-.42.11-.39.11-.35.15-.32.17-.28.2L16,8.93l-.23.22-.2.25-.18.26-.14.27-.14.29L15,10.5l-.08.28-.07.29-.05.28,0,.27,0,.27v2.56h-2V18h2V28.1H18.9V18h2.83l.37-3.56H18.9v-2.1l0-.24,0-.19.08-.17.09-.13.12-.1.14-.06.13-.05.13,0H22V7.92ZM17.41,0,18.5,0l1.08.1L20.64.3l1,.24,1,.29,1,.35.95.41.94.46.89.5.85.57.84.62.8.65.74.71.7.75.66.79.63.83.56.87.51.89.46.94.41.95.35,1,.3,1,.22,1,.16,1.07.1,1.07,0,1.1,0,1.1-.1,1.07-.16,1.08-.22,1-.3,1-.35,1-.41,1-.46.93-.51.89-.56.87-.63.83L30.4,29l-.7.75-.74.7-.8.66-.84.62-.85.57-.89.5-.94.47-.95.4-1,.35-1,.3-1,.23-1.06.16-1.08.1-1.09,0-1.1,0-1.09-.1-1.06-.16-1-.23-1-.3-1-.35-1-.4-.92-.47-.9-.5-.86-.57-.84-.62-.77-.66-.75-.7L4.39,29l-.66-.79-.61-.83-.56-.87-.51-.89-.47-.93-.41-1-.34-1-.3-1-.22-1L.14,19.57,0,18.5l0-1.1,0-1.1.11-1.07.17-1.07.22-1,.3-1,.34-1,.41-.95.47-.94.51-.89.56-.87.61-.83.66-.79.72-.75.75-.71.77-.65.84-.62.86-.57.9-.5.92-.46,1-.41,1-.35,1-.29,1-.24L15.22.14,16.31,0l1.1,0Z"/></g></g></g></svg>