<svg xmlns="http://www.w3.org/2000/svg" viewBox="0 0 35.3 36.58"><defs><style>.cls-1{opacity:0.8;}.cls-2{fill:#231f20;fill-rule:evenodd;}</style></defs><g id="Capa_2" data-name="Capa 2"><g id="Header"><g id="Icon" class="cls-1"><polygon class="cls-2" points="13.52 20.73 13.58 20.73 14.03 20.75 14.44 20.82 14.86 20.91 15.26 21.16 15.63 21.4 15.97 21.62 16.27 21.83 16.52 22.05 16.73 22.27 16.88 22.5 16.99 22.75 17.02 22.98 17.04 23.2 17.02 23.6 16.93 23.94 16.8 24.26 16.61 24.54 16.37 24.78 16.07 25 15.72 25.18 15.33 25.35 14.87 25.46 14.36 25.54 13.8 25.59 13.18 25.6 12.67 25.59 12.19 25.5 11.72 25.38 11.29 25.22 10.91 25.01 10.57 24.76 10.29 24.49 10.05 24.18 9.87 23.86 9.76 23.5 9.74 23.13 9.78 22.78 9.9 22.45 10.1 22.13 10.37 21.85 10.69 21.57 11.06 21.34 11.48 21.13 11.96 20.97 12.46 20.84 12.98 20.76 13.52 20.73 13.52 20.73 13.52 20.73"/><polygon class="cls-2" points="12.82 10.97 12.88 10.97 13.29 11.02 13.67 11.12 14.07 11.28 14.43 11.49 14.76 11.74 15.05 12.03 15.31 12.36 15.53 12.71 15.7 13.11 15.8 13.5 15.82 13.83 15.82 14.14 15.78 14.44 15.68 14.72 15.55 14.98 15.38 15.21 15.18 15.41 14.98 15.57 14.74 15.7 14.49 15.78 14.22 15.84 13.93 15.85 13.91 15.85 13.5 15.81 13.12 15.7 12.72 15.53 12.38 15.32 12.04 15.06 11.74 14.76 11.48 14.43 11.25 14.07 11.08 13.69 10.99 13.28 10.96 12.96 10.96 12.65 11.01 12.36 11.08 12.09 11.22 11.84 11.39 11.6 11.58 11.4 11.85 11.22 12.14 11.08 12.47 11 12.82 10.97 12.82 10.97 12.82 10.97"/><path class="cls-2" d="M22.81,13l-.15,0-.13.1-.1.13,0,.18v3.08h-3l-.16,0-.14.09-.09.14L19,17v.89L19,18l.09.14.14.09.16,0h3v3.08l0,.16.1.14.13.09.15,0h.85l.17,0,.12-.09.08-.14,0-.16V18.31h3l.16,0,.13-.09.09-.14,0-.17V17l0-.15-.09-.14-.13-.09-.16,0h-3V13.48l0-.18L24,13.17l-.12-.1-.17,0Zm-9-4-.57,0-.58.1-.59.17-.49.22-.48.25-.43.3-.42.33-.35.37-.31.39-.27.42-.21.44L9,12.56l-.1.47,0,.47,0,.56.1.52.15.51.21.47.26.45.31.39.36.36.38.32.44.26.47.22.5.16.54.11.54,0,0,.3,0,.28,0,.37.09.36.17.34h-.07l-.58,0-.57.08-.55.12L11,19.9l-.5.21-.49.24-.43.27-.41.31-.37.34-.33.38-.28.4L8,22.49,7.83,23l-.12.47,0,.45,0,.34.07.32.1.31.14.31.22.34.27.33.32.29.37.27.4.25.44.22.5.19.53.16.58.13.59.09.61.06.63,0,.56,0,.54-.06.54-.09.5-.14.55-.2.51-.23.47-.28.42-.32.38-.34.32-.39.28-.42.22-.43.15-.46.1-.48,0-.49,0-.5,0-.47-.09-.43-.13-.42L18.58,21l-.21-.37-.25-.35-.31-.32-.36-.33L17,19.27l-.2-.16-.21-.17-.18-.18-.17-.17-.14-.17L16,18.27l-.09-.14L15.84,18l0-.08v-.1l0-.11v-.09l0-.11,0-.1.08-.1.11-.13.14-.14.18-.15.22-.19.37-.34.34-.35.28-.38.24-.39.17-.41.14-.43.08-.43,0-.44,0-.54-.07-.49L18.08,12l-.16-.44-.21-.41-.26-.35h.42l.14,0,.11-.06,1.17-.88.1-.09.05-.13,0-.12,0-.14-.07-.12-.08-.1-.11-.05-.13,0ZM17.66,0l1.11.05,1.09.1,1.07.18L22,.57l1,.3,1,.37,1,.43.95.48.9.54.87.6.84.65.81.68.76.75.71.79.67.82.63.87.57.92.52.93.47,1,.42,1,.35,1,.3,1.06L35,14.88,35.17,16l.1,1.13,0,1.15,0,1.16-.1,1.13L35,21.7l-.23,1.08-.3,1.07-.35,1-.42,1-.47,1-.52.94-.57.92-.63.86-.67.83-.71.79-.76.74-.81.69-.84.65-.87.59-.9.54-.95.48-1,.43-1,.37L22,36l-1.07.24-1.07.17-1.09.1-1.11,0-1.12,0-1.11-.1-1.07-.17-1-.24-1-.31-1-.37-1-.43-.94-.48-.92-.54-.87-.59-.84-.65L5.94,32l-.77-.74-.71-.79-.68-.83-.61-.86-.58-.92-.52-.94-.47-1-.41-1-.35-1-.3-1.07L.31,21.7.14,20.58,0,19.45l0-1.16,0-1.15L.14,16l.17-1.13.23-1.09.3-1.06.35-1,.41-1,.47-1,.52-.93.58-.92L3.78,7l.68-.82.71-.79.77-.75.79-.68.84-.65.87-.6.92-.54.94-.48,1-.43,1-.37,1-.3,1-.24L15.43.15l1.11-.1,1.12,0Z"/></g></g></g></svg>