<svg xmlns="http://www.w3.org/2000/svg" viewBox="0 0 34.8 34.8"><defs><style>.cls-1{opacity:0.8;}.cls-2{fill:#231f20;fill-rule:evenodd;}</style></defs><g id="Capa_2" data-name="Capa 2"><g id="Header"><g id="Icon" class="cls-1"><polygon class="cls-2" points="17.4 14.5 17.89 14.53 18.36 14.63 18.8 14.78 19.21 14.99 19.59 15.26 19.93 15.57 20.22 15.9 20.45 16.25 20.64 16.64 20.77 17.02 20.86 17.44 20.88 17.88 20.86 18.33 20.75 18.79 20.61 19.19 20.4 19.58 20.16 19.95 19.86 20.27 19.52 20.55 19.15 20.8 18.75 21 18.32 21.14 17.87 21.24 17.4 21.27 16.92 21.24 16.48 21.14 16.04 21 15.64 20.8 15.27 20.55 14.94 20.27 14.64 19.95 14.39 19.58 14.19 19.19 14.04 18.79 13.96 18.33 13.92 17.88 13.95 17.44 14.03 17.02 14.17 16.64 14.35 16.25 14.57 15.9 14.87 15.57 15.21 15.26 15.59 14.99 16 14.78 16.44 14.63 16.91 14.53 17.4 14.5 17.4 14.5 17.4 14.5"/><polygon class="cls-2" points="24.46 9.67 24.86 9.67 24.86 13.52 21.88 13.53 21.88 9.68 24.46 9.67 24.46 9.67 24.46 9.67"/><path class="cls-2" d="M11.33,7.51l-.48,0-.45.09L10,7.77,9.53,8l-.39.25-.34.28-.33.31-.27.36L8,9.54l-.2.41-.14.44-.09.46,0,.48V23.47l0,.49.09.45.14.44.2.42.24.38.27.36.33.32.34.28.39.24L10,27l.45.14.45.1.48,0H23.47l.48,0,.46-.1.44-.14.43-.18.38-.24.36-.28.31-.32.28-.36.25-.38.18-.42.14-.44.09-.45,0-.49V11.33l0-.48-.09-.46L27,10l-.18-.41-.25-.39-.28-.36L26,8.48l-.36-.28L25.28,8l-.43-.18-.44-.14L24,7.54l-.48,0ZM17.4,0l1.1,0,1.09.1L20.64.3l1,.24,1,.29,1,.34,1,.43.93.45.89.5.87.58.82.62.8.65.75.71.69.74.67.79.62.83.56.87.52.89.45.93.42,1,.35,1,.29,1,.23,1,.16,1.07.1,1.08,0,1.1,0,1.1-.1,1.07-.16,1.07-.23,1-.29,1-.35,1-.42,1-.45.94-.52.89-.56.87-.62.82L30.4,29l-.69.75-.75.7-.8.66-.82.62-.87.57-.89.5-.93.47-1,.41-1,.34-1,.3-1,.23-1.05.16-1.09.1-1.1,0-1.09,0-1.1-.1-1.05-.16-1-.23-1-.3-1-.34-1-.41-.92-.47-.9-.5-.87-.57-.82-.62-.78-.66-.75-.7L4.4,29l-.66-.79-.62-.82-.56-.87L2,25.58l-.46-.94-.41-1-.34-1-.3-1-.22-1L.14,19.58,0,18.51l0-1.1,0-1.1.11-1.08.17-1.07.22-1,.3-1,.34-1,.41-1L2,9.23l.52-.89.56-.87.62-.83.66-.79.71-.74.75-.71.78-.65.82-.62.87-.58.9-.5.92-.45,1-.43,1-.34,1-.29,1-.24L15.21.14l1.1-.1L17.4,0Z"/><polygon class="cls-2" points="8.95 15.47 12.08 15.47 11.9 15.98 11.76 16.52 11.69 17.06 11.66 17.63 11.7 18.25 11.79 18.86 11.95 19.44 12.17 20 12.45 20.53 12.77 21.02 13.14 21.48 13.56 21.89 14 22.27 14.5 22.59 15.03 22.87 15.59 23.09 16.17 23.25 16.78 23.35 17.4 23.39 18.03 23.35 18.62 23.25 19.21 23.09 19.77 22.87 20.3 22.59 20.79 22.27 21.25 21.89 21.66 21.48 22.03 21.02 22.35 20.53 22.63 20 22.85 19.44 23.01 18.86 23.1 18.25 23.14 17.63 23.12 17.06 23.03 16.52 22.9 15.98 22.71 15.47 25.85 15.47 25.85 24.08 25.82 24.44 25.72 24.79 25.57 25.1 25.38 25.38 25.14 25.62 24.85 25.83 24.54 25.98 24.2 26.07 23.83 26.1 10.96 26.1 10.61 26.07 10.25 25.98 9.94 25.83 9.66 25.62 9.42 25.38 9.23 25.1 9.08 24.79 8.99 24.44 8.95 24.08 8.95 15.47 8.95 15.47 8.95 15.47"/></g></g></g></svg>