<svg xmlns="http://www.w3.org/2000/svg" viewBox="0 0 34.8 34.8"><defs><style>.cls-1{opacity:0.8;}.cls-2{fill:#231f20;fill-rule:evenodd;}</style></defs><g id="Capa_2" data-name="Capa 2"><g id="Header"><g id="Icon" class="cls-1"><path class="cls-2" d="M21.16,9.47l-.51,0-.47.09-.47.14-.44.2-.41.25-.37.3-.32.33-.3.37-.25.4-.2.44-.15.46-.08.48,0,.5,0,.47.07.44-.82-.06-.81-.12L14.84,14l-.77-.24-.74-.29-.72-.33-.68-.4-.65-.41-.62-.49-.59-.51-.55-.55L9,10.21l-.19.35-.15.4-.11.41-.09.42,0,.44,0,.5.1.5.16.46.2.45.26.41.31.37.34.33.38.3-.48,0L9.3,15.4l-.45-.16-.43-.18v0l0,.51.11.49.16.49.21.44.27.42.31.38.35.33.41.3.42.24.46.18.49.13-.34.08-.36,0h-.36l-.38,0-.37-.05.19.47.24.43.28.41.32.35.37.32.42.27.43.22.48.16.49.11.52,0-.53.39-.56.33-.59.3-.61.25-.64.2-.67.13-.67.09-.7,0-.48,0-.48-.05.67.41.73.36.73.31.76.26.78.21.8.14.83.09.84,0,.84,0,.81-.07.77-.13.74-.18.71-.22.69-.26.65-.3.62-.34.6-.38.55-.4.53-.44.49-.47.46-.49.43-.52.4-.53.35-.56.34-.57.29-.6.27-.59.22-.6.19-.62.16-.62.12-.62.09-.62,0-.62,0-.61v-.52l.46-.35.43-.39.41-.41.36-.45.34-.46-.54.21-.57.18-.59.13-.6.1.4-.27.36-.31.32-.36.29-.4.23-.42.17-.46-.6.33-.63.26-.65.21-.67.17-.33-.31-.37-.28L23,9.91l-.42-.18-.46-.14-.47-.08-.48,0ZM17.41,0,18.5.05l1.08.1,1.06.16,1.05.22,1,.3,1,.35.95.41.94.46.9.51.86.57.82.62L29,4.4l.75.7.7.76.66.78.63.83.57.87.51.89.45.94.42.95.35,1,.29,1,.23,1,.16,1.06.1,1.08,0,1.1,0,1.1-.1,1.08-.16,1.07-.23,1-.29,1-.35,1-.42,1-.45.93-.51.89-.57.87-.63.83-.66.78-.7.76-.75.71-.79.65-.82.62-.86.57-.9.5-.94.46-.95.41-1,.35-1,.3-1.05.22-1.06.17-1.08.1-1.09,0-1.1,0-1.09-.1-1.06-.17-1-.22-1-.3-1-.35-1-.41-.93-.46-.91-.5-.86-.57-.82-.62-.78-.65-.75-.71-.71-.76-.66-.78-.61-.83-.58-.87L2,25.57l-.47-.93-.4-1-.34-1-.3-1-.23-1L.14,19.58,0,18.5l0-1.1,0-1.1.11-1.08L.3,14.16l.23-1,.3-1,.34-1,.4-.95L2,9.23l.51-.89.58-.87.61-.83.66-.78.71-.76.75-.7.78-.65.82-.62.86-.57.91-.51.93-.46,1-.41,1-.35,1-.3,1-.22L15.22.15l1.09-.1,1.1,0Z"/></g></g></g></svg>