<svg xmlns="http://www.w3.org/2000/svg" viewBox="0 0 137 137"><defs><style>.cls-1{fill:#fff;}.cls-2{fill:#016af1;}.cls-3{fill:#00ace4;}</style></defs><g id="Capa_2" data-name="Capa 2"><g id="Header"><circle class="cls-1" cx="68.5" cy="68.5" r="63"/><path class="cls-2" d="M68.5,137A68.5,68.5,0,1,1,137,68.5,68.58,68.58,0,0,1,68.5,137Zm0-126A57.5,57.5,0,1,0,126,68.5,57.56,57.56,0,0,0,68.5,11Z"/><path class="cls-2" d="M87.26,58.69A36.68,36.68,0,0,1,58.74,86.24V99.53h20V78.71H100.9v-20Z"/><path class="cls-3" d="M87.26,58.69H78.77V37.75h-20V58.69H36.1v20H58.74v7.53A36.68,36.68,0,0,0,87.26,58.69Z"/></g></g></svg>