<svg xmlns="http://www.w3.org/2000/svg" viewBox="0 0 1189.96 742.89"><defs><style>.cls-1{fill:#f7f7f7;}</style></defs><g id="Capa_2" data-name="Capa 2"><g id="Section_1" data-name="Section 1"><path class="cls-1" d="M129.22,93.47a.79.79,0,0,1-.26.08l-16.73,3.18h0a1,1,0,0,1-1.1-.64c-.3-.84-.61-1.69-.94-2.52C105.91,82.6,102.27,74,100,68.73a1,1,0,0,1,.25-1.13l11.47-10a8.33,8.33,0,0,0,2.82-7.18,1,1,0,0,0-1.4-.76L94.75,58.63a1,1,0,0,1-1.1-.18l-.26-.25a21.13,21.13,0,0,0-3-2.31,1,1,0,0,1-.38-.44,12.59,12.59,0,0,0-1.39-2.75c-.06-.05-.1-.08-.13-.07-.2.07,0,1.45.47,3.5h0A20.8,20.8,0,0,0,87.77,60c0,.08,0,.17,0,.25a1,1,0,0,1-.82.78l-20.36,2.8a1,1,0,0,0-.74,1.4,8.3,8.3,0,0,0,6.33,4.41l15.55,2a1,1,0,0,1,.83.77c1.16,5.6,3.21,14.74,6.09,26.18.22.87.46,1.74.7,2.61a1,1,0,0,1-.52,1.16l-15.35,7.06a1,1,0,0,1-.25.08l-46.81,7.25a1,1,0,0,0-.54,1.65,8.44,8.44,0,0,0,5,2.32l6,.59,28.85,2.85,4.56.45a1,1,0,0,1,.83.65l2.6,7.64a3.84,3.84,0,0,0,4.86,2.38l.4-.14a3.83,3.83,0,0,0,2.39-4.85l-1.13-3.32a1,1,0,0,1,1-1.28l1,.09,14.79,1.46a1,1,0,0,1,.83.67q1.32,4.06,2.63,8.14c3.07,8.33,5.69,14.38,6.75,16.51.75,1.5,1.55,3,1.55,3,.18.35.36.69.55,1,.45.83.95,1.64,1.47,2.43l0,0q2.53,4.48,5.42,8.75a3.16,3.16,0,0,0,1.52,1.2,2.86,2.86,0,0,0,3.36-1.06,3.15,3.15,0,0,0,.55-1.85c-.06-3.54-.26-7.08-.62-10.6,0-1.34-.15-2.28-.18-2.6,0-.48-.11-.88-.14-1.16,0,0-.22-1.67-.48-3.34-.37-2.34-1.75-8.8-4.09-17.36l-2.55-8.1a1,1,0,0,1,.28-1l.09-.08L131.26,112l.76-.66a1,1,0,0,1,1.58.45l1,3.36a3.83,3.83,0,0,0,4.76,2.57l.41-.12a3.83,3.83,0,0,0,2.57-4.76L140,105.12a1,1,0,0,1,.3-1l3.45-3,18.07-15.76L165.63,82l4.58-4a8.43,8.43,0,0,0,2.74-4.8,1,1,0,0,0-1.4-1Z"/><path class="cls-1" d="M1189.93,19.24a1.85,1.85,0,0,0,0-.23c0-.24,0-.48-.05-.71l0-.31c0-.22,0-.43-.09-.65a2.54,2.54,0,0,0,0-.29c0-.27-.09-.54-.14-.8,0,0,0-.08,0-.12-.06-.3-.13-.59-.2-.88l-.09-.31-.15-.56L1189,14c0-.07,0-.14-.07-.22h0a20.18,20.18,0,1,0-36.64,16.44c1,1.77,2,3.57,3,5.38l2,3.64h0l3.63,6.74,8.93,16.58h0l15.07-28c.37-.7.75-1.39,1.14-2.08l.13-.24,1.2-2.12a19.61,19.61,0,0,0,1.58-3.53,20.1,20.1,0,0,0,.73-2.82,20.31,20.31,0,0,0,.33-3.59C1190,19.89,1190,19.57,1189.93,19.24Zm-20.15,12a11.61,11.61,0,1,1,11.61-11.61A11.61,11.61,0,0,1,1169.78,31.23Z"/><path class="cls-1" d="M132.52,195.74a4,4,0,0,1-3.89-3.17c-.7-3.32-1.47-6.71-2.3-10.07a4,4,0,1,1,7.73-1.9c.85,3.45,1.64,6.93,2.36,10.34a4,4,0,0,1-3.08,4.71A3.81,3.81,0,0,1,132.52,195.74Z"/><path class="cls-1" d="M166.24,742.89h-.17a144.15,144.15,0,0,1-21.33-2.47,4,4,0,1,1,1.51-7.81,136.4,136.4,0,0,0,20.15,2.32,4,4,0,0,1-.16,8Zm20.86-.58a4,4,0,0,1-.37-7.95,175.08,175.08,0,0,0,20.18-3.14,4,4,0,1,1,1.67,7.78,182,182,0,0,1-21.1,3.29ZM125.36,735a4,4,0,0,1-1.35-.24A148.78,148.78,0,0,1,104.42,726a4,4,0,1,1,3.75-7,142,142,0,0,0,18.54,8.28,4,4,0,0,1-1.35,7.72Zm102.55-1.32a4,4,0,0,1-1.22-7.77c6.32-2,12.8-4.46,19.27-7.18A4,4,0,0,1,249,726c-6.67,2.81-13.37,5.3-19.9,7.42A4,4,0,0,1,227.91,733.64Zm38.55-16.12a4,4,0,0,1-1.81-7.52c6-3,11.89-6.29,18.12-9.94a4,4,0,1,1,4,6.86c-6.37,3.74-12.43,7.06-18.54,10.17A4,4,0,0,1,266.46,717.52Zm-177.9-2.1a4,4,0,0,1-2.31-.74,185.29,185.29,0,0,1-16.61-13.41,4,4,0,0,1,5.34-5.9A177,177,0,0,0,90.87,708.2a4,4,0,0,1-2.31,7.22Zm214-18.91a4,4,0,0,1-2.14-7.34c5.94-3.78,11.62-7.71,16.9-11.69a4,4,0,1,1,4.79,6.36c-5.45,4.1-11.31,8.15-17.42,12A3.89,3.89,0,0,1,302.6,696.51Zm-245-9a4,4,0,0,1-3-1.33c-4.67-5.24-9.17-10.82-13.37-16.59a4,4,0,1,1,6.43-4.68c4.05,5.56,8.38,10.93,12.88,16a4,4,0,0,1-3,6.63Zm278.24-16.11a3.94,3.94,0,0,1-2.94-1.31,4,4,0,0,1,.26-5.62,203.61,203.61,0,0,0,14.44-14.5,4,4,0,1,1,5.91,5.32,206.88,206.88,0,0,1-15,15.07A4,4,0,0,1,335.84,671.36ZM33,653.72a4,4,0,0,1-3.43-2c-3.6-6.09-6.95-12.42-9.95-18.81a4,4,0,0,1,7.2-3.38c2.9,6.16,6.12,12.26,9.6,18.14a4,4,0,0,1-1.4,5.45A4,4,0,0,1,33,653.72Zm330.74-13.31a3.9,3.9,0,0,1-2.37-.79,4,4,0,0,1-.82-5.56c3.7-5,7.42-10.36,11.73-17a4,4,0,1,1,6.67,4.35c-4.4,6.75-8.22,12.26-12,17.37A4,4,0,0,1,363.74,640.41ZM15.26,615.94a4,4,0,0,1-3.75-2.65A207.39,207.39,0,0,1,5.39,592.9,4,4,0,0,1,13.12,591,201.38,201.38,0,0,0,19,610.62a4,4,0,0,1-2.41,5.09A4.24,4.24,0,0,1,15.26,615.94Zm371.59-10.29a4,4,0,0,1-3.34-6.13c3.32-5.18,7.31-11.32,11.74-17.5a4,4,0,0,1,6.47,4.64c-4.32,6-8.25,12.06-11.51,17.16A4,4,0,0,1,386.85,605.65ZM5.41,575.41a4,4,0,0,1-3.95-3.47A174.43,174.43,0,0,1,0,550.61a4,4,0,0,1,4-4H4a4,4,0,0,1,4,4,166.23,166.23,0,0,0,1.4,20.34,4,4,0,0,1-3.44,4.46A2.92,2.92,0,0,1,5.41,575.41Zm406-3.45a4,4,0,0,1-3-6.61,178.66,178.66,0,0,1,15-15.14,4,4,0,1,1,5.31,5.92,170.46,170.46,0,0,0-14.34,14.48A4,4,0,0,1,411.42,572Zm31-27.82a4,4,0,0,1-2.31-7.22c4.81-3.43,10-6.8,15.36-10,.84-.5,1.67-1,2.51-1.47a4,4,0,0,1,4,6.89c-.81.46-1.61.94-2.42,1.42-5.2,3.1-10.18,6.34-14.82,9.65A4,4,0,0,1,442.39,544.14ZM5.27,533.73a3.23,3.23,0,0,1-.53,0,4,4,0,0,1-3.42-4.47,140.56,140.56,0,0,1,4.43-21,4,4,0,0,1,7.64,2.24,132.44,132.44,0,0,0-4.18,19.79A4,4,0,0,1,5.27,533.73Zm473.18-10.52a4,4,0,0,1-1.68-7.59c6.42-3,13-5.68,19.68-8a4,4,0,0,1,2.66,7.5c-6.41,2.27-12.79,4.88-19,7.75A4,4,0,0,1,478.45,523.21Zm39.31-13.94a4,4,0,0,1-1-7.84c6.67-1.69,13.45-3.12,20.75-4.36a4,4,0,0,1,1.34,7.85c-7.09,1.2-13.67,2.59-20.13,4.22A3.72,3.72,0,0,1,517.76,509.27Zm41.13-7.19a4,4,0,0,1-.45-7.93q5.89-.67,11.42-1.24c3.26-.35,6.34-.68,9.36-1a4,4,0,0,1,.9,7.91c-3,.35-6.15.67-9.43,1-3.66.39-7.45.79-11.34,1.24Zm41.4-5.51a4,4,0,0,1-.89-7.85c7.56-1.75,13.24-4,17.86-7.2a4,4,0,0,1,4.49,6.58c-5.47,3.73-12,6.39-20.56,8.37A3.94,3.94,0,0,1,600.29,496.57ZM17,493.85a4,4,0,0,1-3.61-5.66,166.43,166.43,0,0,1,10.31-18.72,4,4,0,0,1,6.73,4.26,157.9,157.9,0,0,0-9.82,17.82A4,4,0,0,1,17,493.85ZM632.65,473a4,4,0,0,1-1.68-.37,4,4,0,0,1-1.92-5.29,38.52,38.52,0,0,0,3.65-16.62c0-.6,0-1.22,0-1.84a4,4,0,0,1,8-.33c0,.73,0,1.46,0,2.17a46.85,46.85,0,0,1-4.4,20A4,4,0,0,1,632.65,473ZM39,458.51a4,4,0,0,1-3.15-6.4c3.76-4.92,8-10.12,13.28-16.37a4,4,0,1,1,6.07,5.14C50,447,45.87,452.14,42.18,457A4,4,0,0,1,39,458.51Zm593.19-26.13a4,4,0,0,1-3.74-2.6,141.14,141.14,0,0,0-8.54-18.43,4,4,0,1,1,7-3.79,150.45,150.45,0,0,1,9,19.47,4,4,0,0,1-2.36,5.11A4.12,4.12,0,0,1,632.21,432.38ZM65.8,426.44a4,4,0,0,1-3-6.58c4.29-5,8.88-10.33,13.44-15.87A4,4,0,0,1,82.38,409c-4.61,5.61-9.24,11-13.56,16A4,4,0,0,1,65.8,426.44Zm547.08-31.05a4,4,0,0,1-3.39-1.9c-2.32-3.76-4.67-7.51-7.16-11.48q-2-3.09-3.91-6.23a4,4,0,0,1,6.75-4.22l3.9,6.22c2.5,4,4.86,7.75,7.2,11.54a4,4,0,0,1-1.31,5.47A3.88,3.88,0,0,1,612.88,395.39ZM92.16,394a4,4,0,0,1-3.2-6.35c4.29-5.81,8.09-11.37,11.61-17a4,4,0,1,1,6.74,4.23c-3.63,5.79-7.53,11.51-11.94,17.49A4,4,0,0,1,92.16,394Zm498.77-34.25a4,4,0,0,1-3.43-2c-3.89-6.65-7.22-12.71-10.17-18.52a4,4,0,1,1,7.09-3.61c2.88,5.67,6.14,11.6,10,18.11a4,4,0,0,1-3.44,6Zm-476.69-1.15a4,4,0,0,1-1.8-.43,4,4,0,0,1-1.74-5.35c3.1-6.1,5.92-12.39,8.39-18.69a4,4,0,0,1,7.41,2.91c-2.56,6.54-5.49,13.06-8.71,19.38A4,4,0,0,1,114.24,358.64Zm458-36.16a4,4,0,0,1-3.7-2.5,180.11,180.11,0,0,1-6.79-20.23,4,4,0,0,1,7.68-2.06A173.68,173.68,0,0,0,575.9,317a4,4,0,0,1-2.22,5.17A3.81,3.81,0,0,1,572.21,322.48Zm-442.76-2.64a3.79,3.79,0,0,1-1.09-.16,4,4,0,0,1-2.74-4.91c1.84-6.45,3.42-13.17,4.7-20a4,4,0,1,1,7.82,1.48c-1.32,7-3,14-4.86,20.65A4,4,0,0,1,129.45,319.84Zm432.13-37.62a4,4,0,0,1-4-3.52,136,136,0,0,1-.93-15.7c0-1.92,0-3.87.13-5.78a4,4,0,0,1,7.95.35c-.08,1.8-.12,3.63-.12,5.43a126.67,126.67,0,0,0,.88,14.77,4,4,0,0,1-3.49,4.42A3.71,3.71,0,0,1,561.58,282.22Zm-424.34-3.36-.41,0a4,4,0,0,1-3.55-4.37c.7-6.76,1.12-13.66,1.26-20.52a4,4,0,1,1,8,.16c-.15,7.08-.59,14.2-1.3,21.18A4,4,0,0,1,137.24,278.86Zm426.18-38.2a3.77,3.77,0,0,1-.81-.08,4,4,0,0,1-3.09-4.71,153.39,153.39,0,0,1,5.88-20.62,4,4,0,0,1,7.49,2.7,144.06,144.06,0,0,0-5.57,19.54A4,4,0,0,1,563.42,240.66Zm-425.31-3.54a4,4,0,0,1-4-3.75c-.4-6.77-1.07-13.67-2-20.49a4,4,0,1,1,7.88-1.07c1,7,1.65,14.12,2.06,21.1a4,4,0,0,1-3.74,4.2ZM986.94,224h-.26a137,137,0,0,1-21.25-3.09,4,4,0,1,1,1.75-7.76,128.59,128.59,0,0,0,20,2.91,4,4,0,0,1-.25,8Zm20.85-.4a4,4,0,0,1-.4-7.94c2.41-.25,4.85-.58,7.26-1a127.86,127.86,0,0,0,12.62-2.74,4,4,0,1,1,2.09,7.68,132.65,132.65,0,0,1-13.42,2.91c-2.57.42-5.17.77-7.73,1ZM946.32,215a4,4,0,0,1-1.38-.25,208.1,208.1,0,0,1-19.54-8.46,4,4,0,1,1,3.52-7.14,201.23,201.23,0,0,0,18.79,8.14,4,4,0,0,1-1.39,7.71ZM1048,212.71a4,4,0,0,1-1.62-7.62,147.88,147.88,0,0,0,17.94-9.54,4,4,0,1,1,4.2,6.76,156.61,156.61,0,0,1-18.9,10.05A3.91,3.91,0,0,1,1048,212.71Zm-470.53-11.3a4,4,0,0,1-3.54-5.78,193.91,193.91,0,0,1,10.69-18.44,4,4,0,0,1,6.66,4.36A184.73,184.73,0,0,0,581,199.23,4,4,0,0,1,577.44,201.41Zm331.36-4.7a4,4,0,0,1-2-.55c-5.65-3.34-11.5-7-17.88-11.21a4,4,0,0,1,4.38-6.65c6.28,4.14,12,7.74,17.54,11a4,4,0,0,1-2,7.41Zm174.64-5.87a4,4,0,0,1-2.49-7.09c5.16-4.11,10.33-8.68,15.36-13.57a4,4,0,1,1,5.55,5.7c-5.22,5.08-10.58,9.82-15.94,14.1A4,4,0,0,1,1083.44,190.84Zm-209.62-17a3.92,3.92,0,0,1-2.28-.72c-5.25-3.67-10.56-7.46-15.69-11.12l-1.4-1a4,4,0,0,1,4.62-6.49l1.4,1c5.12,3.65,10.42,7.43,15.63,11.08a4,4,0,0,1-2.28,7.24Zm-273.55-7.31a4,4,0,0,1-3.08-6.5,203.83,203.83,0,0,1,14.31-15.78,4,4,0,1,1,5.61,5.64,198.06,198.06,0,0,0-13.76,15.18A4,4,0,0,1,600.27,166.51Zm513.17-4.68a4,4,0,0,1-3-6.6c4.37-5,8.74-10.38,13-16a4,4,0,1,1,6.34,4.82c-4.37,5.75-8.86,11.28-13.34,16.41A4,4,0,0,1,1113.44,161.83ZM839.68,149.66a4,4,0,0,1-2.27-.71c-6.39-4.45-12-8.25-17.22-11.63a4,4,0,1,1,4.33-6.67c5.28,3.42,11,7.27,17.43,11.76a4,4,0,0,1-2.27,7.25Zm-209.8-12.57a4,4,0,0,1-2.49-7.08,187.23,187.23,0,0,1,17.38-12.41,4,4,0,0,1,4.24,6.73,180.49,180.49,0,0,0-16.64,11.89A3.94,3.94,0,0,1,629.88,137.09Zm508.87-8.47a4,4,0,0,1-3.3-6.2c3.73-5.56,7.47-11.43,11.12-17.47a4,4,0,1,1,6.81,4.12c-3.71,6.14-7.52,12.13-11.33,17.79A4,4,0,0,1,1138.75,128.62ZM804.54,127a4,4,0,0,1-2-.53c-6.36-3.66-12.31-6.79-18.2-9.58a4,4,0,1,1,3.4-7.19c6.08,2.87,12.22,6.1,18.77,9.87a4,4,0,0,1-2,7.43ZM665.22,114.89a4,4,0,0,1-1.7-7.59,156.08,156.08,0,0,1,20-7.75,4,4,0,1,1,2.34,7.61,147.51,147.51,0,0,0-19,7.35A3.88,3.88,0,0,1,665.22,114.89Zm101.52-5.52a4.21,4.21,0,0,1-1.3-.21,144.39,144.39,0,0,0-19.59-5.3A4,4,0,0,1,747.36,96,155.7,155.7,0,0,1,768,101.63a4,4,0,0,1-1.3,7.74Zm-61.68-6.6a4,4,0,0,1-.55-7.92,128,128,0,0,1,17.79-1.26h0c1.24,0,2.49,0,3.72.06a4,4,0,1,1-.24,7.95c-1.15,0-2.32,0-3.48,0h0a119.83,119.83,0,0,0-16.68,1.18A3.6,3.6,0,0,1,705.06,102.77Z"/><path class="cls-1" d="M1160.86,92a4,4,0,0,1-3.49-5.89c1.64-3,3.29-6.08,4.9-9.17a4,4,0,1,1,7,3.69c-1.63,3.13-3.3,6.26-5,9.3A4,4,0,0,1,1160.86,92Z"/></g></g></svg>