<svg xmlns="http://www.w3.org/2000/svg" viewBox="0 0 1098.65 638.23"><defs><style>.cls-1{isolation:isolate;}.cls-2{mix-blend-mode:multiply;}.cls-3{opacity:0.6;}.cls-4{fill:#dfe2e7;}.cls-5{fill:#a7a9ac;}.cls-6{fill:#00ace4;}</style></defs><g class="cls-1"><g id="Capa_2" data-name="Capa 2"><g id="Section_1" data-name="Section 1"><g class="cls-2"><g class="cls-3"><path class="cls-4" d="M1096.12,104.28c-1.88-1.16-4.26-1.54-6.43-2.24-2.72-.87-5.65-1.34-8.12-2.67-11-5.92-21.89-11.85-34.6-13.15-4.81-.49-5.8.32-6.25,4.74-.14,1.31-1,2.54-1.51,3.8-1.22-.67-2.43-1.35-3.66-2-2.87-1.51-5.6-3.68-8.66-4.34-6.05-1.31-12.23-1.55-17.66,3.65-.9-2.13-1.49-3.56-2.12-5-2.93-6.6-5.93-8.27-13-7.28-3.32.47-6.66,1.32-10,1.23-1.83,0-4.62-1.25-5.24-2.68-3.37-7.73-6.35-7-12.58-5.58-3.55.79-6.24.4-8.26-3.52-3.48-6.77-7.09-6.62-10.87,0A7.3,7.3,0,0,0,946,73c.22,4.43-2.57,5.12-6,5a41.09,41.09,0,0,1-7.86-.63c-5-1.13-9.45-1.26-11.41,6.48-3.39-3.92-7-6.4-8.06-9.7-1.76-5.53-10.38-11.06-15.66-8.67A3,3,0,0,0,895.61,67c-1.29,4.1-4.19,3.66-7.44,3-7-1.5-14-2.68-20.95-4.29-2-.45-3.59-2.11-5.5-2.92a9,9,0,0,0-4-.61c-1,.08-1.87.86-2.8,1.32l-.69-.84A20.91,20.91,0,0,1,857.5,59c1.78-1.25,4.25-1.68,5.7-3.17s2.82-3.91,2.57-5.7c-.22-1.58-2.52-3.56-4.27-4-2.27-.65-4.91,0-7.38.09-2.72.12-5.43.26-8.15.4.25-.38.51-.75.76-1.12-1.14-1.85-2-4.92-3.48-5.3-4.09-1-8.4-.86-11.79,2.66-.94,1-2.46,1.35-3.66,2.1s-2.42,1.86-3.75,2.55c-1.62.84-3.37,1.94-5.08,2-2.73.06-5.74-1.59-8.18-.91-9.27,2.58-18.39,5.72-27.48,8.9-1.15.4-2.72,2.53-2.49,3.45.79,3.12-1.07,3.16-3,3.36-3.1.32-6.2.61-9.7.95l2.74,7.33-1,.86a36.32,36.32,0,0,1-4.27-2.28c-5.74-4.07-8.06-3.44-10.92,3.06a27.83,27.83,0,0,1-1.9,2.81c-.83-2.49-1.27-4-1.82-5.39-.43-1.11-1-2.16-1.5-3.25-.84,1-2.41,2-2.41,3,0,5.22.32,10.44.76,15.64.35,4.21,1.61,8.41,1.42,12.57-.31,7-8,11.86-14.34,9.08,1.63-.93,3.31-1.42,4.28-2.53,1.83-2.11,4.38-4.47,4.59-6.9a43.73,43.73,0,0,0-1.14-14.78c-1-3.57-1.65-6.62-.14-10.08.89-2,.45-4-2.27-4-3.78,0-7.31.78-9.3,4.59-1.07,2.08-2.19,4.14-3.37,6.16a7.6,7.6,0,0,0,.37,9c1.44,2,2.58,4.21,3.85,6.33-9.48-1.23-16.22-9.62-26.34-7.26l1.44,4.28L688,95.15c-2.7-3.73-4.25-4.06-8.57-1.19a95,95,0,0,0-7.82,5.68c-5.05,4.2-5,4.26-8.16-1.56-.21-.38-.43-.94-.76-1-1.47-.48-3.17-1.44-4.45-1.08-1.9.55-3,2.05-1.63,4.44,1.57,2.7-.22,4.18-2.44,5.55-3.57,2.21-6.95,4.75-10.5,7a56.87,56.87,0,0,1-9.06,5.07c-2.73,1.09-4.83-.47-5.59-3.34-.68-2.58-1.19-5.2-2-9,3.52,1.1,6.46,2,9.39,2.94,3.8,1.21,9.14-1,10.26-4.59,1.27-4.09-2.2-5.35-4.88-6.6-5.7-2.65-11.62-4.82-17.28-7.54-2.2-1-3.87-3.13-5.89-4.61s-4.4-4.23-6.67-4.3c-15.32-.44-30.51,0-40.06,15.15-1.09,1.71-2.75,3.05-3.92,4.73-4,5.75-8.41,11.29-11.6,17.46-2.22,4.31-4.62,7.54-9.23,9.19-3.62,1.3-7.49,3.12-8,7.37a80.28,80.28,0,0,0-.15,15.19c.22,3.2,2.85,4.72,5.76,3.41,3.8-1.72,7.28-4.17,11.26-6.51a9.13,9.13,0,0,1,1.24,2.5c1.21,5.07,2.17,10.19,3.45,15.24.36,1.41,1.51,2.62,2.29,3.92a32.08,32.08,0,0,0,3.78-2.72c1.58-1.5,2.72-3.57,4.49-4.74,2.61-1.71,3.34-3.78,2.92-6.68-.39-2.68-.21-5,2.67-6.74,4.45-2.72,4.39-4.08.66-7.85s-4-9.74-.37-11.8c4.59-2.59,7.25-6.46,9.65-11a11.21,11.21,0,0,1,6.23-4.74c1.83-.55,4.27.92,6.43,1.48-1,1.46-1.75,3.18-3,4.32-6.12,5.5-11,11.16-8.61,20.48,1.78,6.93,1.33,6.82,8,3.76,3.88-1.79,8.32-2.54,12.59-3.2,1.32-.21,2.92,1.4,4.4,2.18-1.15,1.15-2.14,3-3.49,3.31-2.91.65-6,.43-9,.71-1.65.15-3.63.16-4.75,1.09-.58.47.45,2.83.67,4.34.24,1.68.93,3.57.41,5-.41,1.13-2.35,1.71-3.61,2.53a16.55,16.55,0,0,1-1.26-3.34,35.76,35.76,0,0,1-.05-5c-4.54,3.64-7.08,12.3-5.45,16.66-2.33,1.55-4.51,3.59-7.1,4.56-3.05,1.14-6.45,1.39-9.71,1.94a33,33,0,0,1-4.65.46c-2.46.08-4.92,0-7.38,0-5.34-2.27-5.67-3.3-4.24-9,.87-3.44,1.31-7,2-11-9.29,4.46-9.58,5.33-6.89,14,.83,2.67.81,5.6,1.3,9.27-11.47-2.2-14.13,9.91-22.67,12-.45.11-.49,1.41-1,1.87-1.79,1.66-3.64,3.28-5.58,4.76-1.39,1.06-3,1.88-4.46,2.81l.42.76-9.53,1.24c.56,1.31.72,2.39,1.34,3,2.81,2.81,5.82,5.43,8.61,8.26a9,9,0,0,1,.79,12c-1,1.26-4.62.53-7,.53-4.91,0-9.82-.3-14.7,0-.86,0-2.51,2.6-2.23,3.51,1.55,4.94,1.25,9.63.09,14.64-.68,2.93,0,6.43,1,9.35.34,1,3.59.95,5.49,1.42a5.69,5.69,0,0,1,1.62.63c5.6,3.44,10.19,3,14.6-1.7,2.16-2.31,5.84-5.27,5.51-7.44-.88-5.91,3.82-7.34,6.33-10.57,1.33-1.73,2.86-3.53,3.46-5.55.95-3.16,3.38-5,5.72-3.78,4.77,2.52,7.23-.35,10.36-2.72a3.89,3.89,0,0,1,3.72.06c1.21,1.12,1.61,3,2.59,4.48,1.89,2.73,3.4,6.36,6.06,7.8,6.59,3.58,11.4,7.55,9.51,16.25,1.58-1.66,3.21-3.32,3.5-5.2s-.76-4-1.43-6.85l5.75,2.22c-.72-1.35-.93-2.26-1.5-2.71-5.62-4.42-11.46-8.46-15.52-14.67-2-3.11-2.1-5.75,1-7.65,2.17,1.32,5,2,5.79,3.71,2.41,5.22,6.74,7.85,11.41,10.41,2.61,1.44,5,3.21,3.14,7-.36.75.49,2.14.9,3.19,1.5,3.91,3,7.84,4.66,11.66.49,1.1,2.12,2.75,2.69,2.56a16.43,16.43,0,0,0,6.32-3.49c.51-.51-1.09-3.2-1.78-4.86-.22-.53-.81-.92-1-1.46-.38-1.46-.62-3-.91-4.44,2.82,0,3.76-5.38,7.21-2.84,4.31,3.19,7.08,0,10.93-1.73-4.83-3.78-4.24-7.32-1-11.46,2.73-3.46,4.53-7.65,7.07-11.28.58-.84,3.31-1.39,3.69-.94a9.41,9.41,0,0,1,2.25,5c.21,3.46,1.72,5.51,4.06,4.53,3.17-1.34,5-5.82,3-10.29h6.67a21.25,21.25,0,0,1-.47,4.89c-.77,2.28-.65,3.75,1.72,5a75,75,0,0,1,9.55,6.1c1.07.81,2.24,3,1.87,3.86-.53,1.3-2.47,2.84-3.78,2.82-3.3-.05-7.05-.09-9.8-1.61-9.11-5-16.06.87-23.48,4-2.7,1.15-5,3.42-7.16,5.55a8,8,0,0,0-2.35,4.85c-.1,2.69,8.5,9.64,11.26,9.54,5.83-.2,11.66-.45,17.53-.68-1.28,7.11-2.67,14.87-3.88,21.57-4.35,0-9-1.32-12.21.29-5.85,2.95-10.41,1.12-15.3-1.31-2.75-1.36-5.32-3.15-8.15-4.3-4.56-1.86-6.86,0-7.38,4.82-.26,2.42-1.67,4.71-2.69,7.38-4-3.71-6.91-6.81-10.26-9.24a27.51,27.51,0,0,0-8.4-3.88c-2.47-.71-5.27-.23-7.8-.81-2.78-.64-4.15-4.34-2.15-5.72,4.77-3.3,1.4-7.66,2.55-11.1-9.95.43-19.41.62-28.83,1.39a11.71,11.71,0,0,0-6.76,3.53c-3.19,3.32-6.55,4.05-11,3.73-2.77-.2-6,1.46-8.51,3.05s-4.46,4.07-6.6,6.21c-2.38,2.35-4.14,5-2.69,8.51,1.72,4.16-1.68,11.11-6.15,11.21-3.35.08-4.25,2-5.31,4.24-3.56,7.37-7.22,14.71-10.43,22.24-.67,1.57-.16,4.23.78,5.79,2,3.36,3.82,14.51,1.33,16.7-4.83,4.23-4.27,7.84-1.7,13.29,2,4.2,3.91,7.85,7.41,10.91,1.61,1.42,3.62,4,3.34,5.65-.62,3.89,1.3,5.7,3.87,7.58,2.13,1.55,4.94,2.75,6.18,4.85,4.2,7.16,10.32,5.65,16.54,4.46a34.42,34.42,0,0,1,3.9-.63c5.3-.38,10.27-1.1,14.44-5.22,2.65-2.62,10.18-1.35,10.92,1.74,1.3,5.46,4.9,4.61,8.66,4.59,4.61,0,7.26,2.46,6.67,6.7-.55,4-1.93,7.81-2.72,11.76a7,7,0,0,0,.27,4.46,103.83,103.83,0,0,0,7.89,12.52,26.31,26.31,0,0,1,5.55,18.63,5.31,5.31,0,0,0,.61,3.37c2.67,3.45,1,6.18-.9,9.16a43.85,43.85,0,0,0-3.34,7.1c-4,10.12.86,18.42,5.3,27,1.46,2.81,1.91,6.24,2.37,9.44.66,4.58,0,9.51,1.52,13.75,2.43,7,6.11,13.53,9.21,20.28.28.62.5,1.66.18,2.09-3,4.1.67,6.79,2.06,9.89,1.15,2.57,3,2.91,5.79,1.87,3.77-1.43,7.79-3.06,11.71-3.1,6.59-.06,10.7-3,13.82-8.36,3.92-6.7,7.88-13.37,12-19.94,1.73-2.75,2.62-5-1.38-6.09.22-3.45,2.19-4.33,5-4.54,5.56-.41,7.42-2.64,6.12-8a45.64,45.64,0,0,0-4-10.07c-1.31-2.51-1-3.56,1.46-5.15,5.19-3.33,10.05-7.2,14.92-11a5.3,5.3,0,0,0,1.78-3.37c.71-8.49,1.27-17.13-2.66-25-3.18-6.36-2.28-12.68-1.24-19.09,1.28-7.91,7.94-12.34,12.38-18.16,5.1-6.69,12.56-11.42,15.66-19.82,2.06-5.57,4.87-10.87,7.36-16.28,1.46-3.17,2.82-6.33,1.12-9.91-4.82,1-9.37,1.89-13.9,2.92a22,22,0,0,0-3.67,1.44c-4.28,1.81-5.56,1.09-7.19-3.21-1.27-3.35-2.51-7-4.76-9.64-3.6-4.27-7.66-8-8.6-13.93-.18-1.17-1.45-2.14-2.08-3.28-1.07-2-2.45-3.91-3-6-1-4.28,0-9.16-4.66-12.17-.92-.59-1-2.66-1.24-4.08-1-5.39-2.42-10.44-6.31-14.67-1.62-1.75-2.23-4.44-3.3-6.7l1.81-1.37c1.11,2,2.21,4,3.5,6.37l2.15-2.66c2.46,4.69,4.51,10.08,7.85,14.5a31.61,31.61,0,0,1,5.55,11.66c.82,3.23,2.33,6.84,4.71,9a17.18,17.18,0,0,1,5.93,11.26c.61,4.75,1.76,9.42,2.5,14.15.43,2.76,2.06,3.34,4.38,2.81a17.08,17.08,0,0,0,5-1.62c12.81-7.72,27-13.61,35.38-27.17a18.26,18.26,0,0,1,2-2.32c3.24-3.67,3.78-8.57,0-11.24a24.71,24.71,0,0,1-8.49-9.81c-.08-.16-.52-.15-1-.27-1.25,1.45-2.35,3.31-4,4.41s-4,2.27-5.74,2c-1-.15-1.49-3.22-2.3-4.93s-1.3-4.15-2.65-4.8c-3.93-1.92-5.87-5.08-7.27-8.88-1.24-3.34.06-5.26,3.24-6.22a5.87,5.87,0,0,1,1.13,1c2.94,4.3,5.52,8.92,8.93,12.81,1.43,1.63,4.55,2,7,2.42,1.79.31,5-1,5.42-.28,3.37,5.3,8.65,5.25,13.84,5.74,1.66.16,3.29.61,4.94.88,5.25.84,12.91-4.29,14.41,5.82a.5.5,0,0,0,.28.32c3.16.84,2.66,3.5,3.1,5.84.9,4.79,3.91,5.9,7.92,3.14,1-.67,2-1.27,3.72-2.33,0,2.48,0,4.05,0,5.61,0,4.37-.83,9,.26,13.05,3.1,11.53,6.93,22.86,10.61,34.23.89,2.77,2.6,2.22,4.25.45,5.82-6.2,8.22-13.67,7.8-22-.19-3.65,0-6.64,4.1-8.07,1.09-.39,2.54-1.65,2.65-2.64.54-5,4.33-7.25,7.59-10.18,1.94-1.75,3-4.52,4.45-6.79.77-1.17,1.73-3.32,2.43-3.25,4,.4,7.65.1,9.67-3.87l6,10.07a30.12,30.12,0,0,0,0,4.59c.36,2.28,1.25,4.49,1.46,6.78.59,6.59,2.42,7.58,8.2,3.94,5.51,8.39,8.31,17.23,5.51,27.33-.32,1.16.41,2.7.87,4,1.76,4.89,3.79,9.69,5.39,14.64s4.12,9.16,10.83,11.62c-1.92-8.06-2-15.86-7.67-20.9-8.69-7.78-5.41-16.46-4-26.26,4.43,5.18,8.4,9.44,11.9,14.06,2,2.71,4.08,3,6.76,1.58a42.81,42.81,0,0,0,4.52-2.7c6.28-4.47,7-6.52,3.94-13.65-2.53-5.92-5.18-11.83-8.28-17.47-2-3.67-1.58-6.27,1.48-8.81,2.28-1.9,4.49-3.89,7.43-6.44.43,1.92,1.25,3.66,1.07,5.28-.17,1.43-1.79,2.65-2.18,4.11a19.6,19.6,0,0,0-.56,6.15c0,.45,2.27,1.42,2.74,1.09,1.53-1.09,3.24-2.46,3.89-4.11a9.69,9.69,0,0,0,.13-5.84c-1.33-4.71-.73-5.39,4-7,5.32-1.83,12.1-3.11,15.15-7,5.88-7.57,10.15-16.59,14-25.48,2.58-6-1.57-11.6-4-17-3.63-8.15-3.51-8.81,4.07-13.58.37-.23.93-.27,1.17-.58a26.12,26.12,0,0,0,1.46-2.38c-.9-.52-1.81-1.5-2.7-1.47a13.37,13.37,0,0,0-5.54,1c-3.48,1.71-4-1-5-3-1.09-2.33-.28-3.66,2.27-4.6a15.88,15.88,0,0,0,5.09-3.68,42,42,0,0,0,3.85-5.07c1,4.63,3,6.78,7.13,6.59a3.43,3.43,0,0,1,2.45,2.08c1.59,5.62,6.07,10.57,3.84,17.13-.54,1.59-.23,3.79,2.65,3.08a9,9,0,0,0,4.76-15c-1-1.22-2.58-2.28-3-3.69s-.62-3.87.23-5c3.46-4.63,7.35-8.94,10.32-12.46,3.52-.37,7.71.46,9.28-1.2,7.51-8,14.88-16.28,17.28-27.52,1.09-5.12,2.09-10.28,2.67-15.48a22.89,22.89,0,0,0-.84-7.77c-.59-2.42-2.44-3.82-5-2.82-4.33,1.7-7-1.13-10.55-2.95.75-1,1.15-1.55,1.63-2.07,5.7-6.22,11.43-12.41,17.11-18.65a9.88,9.88,0,0,1,9.89-3.3c2.14.44,4.21,1.21,6.35,1.73,2.89.7,6,2.31,7.81-2,.21-.49,2.4-.51,3.44-.12.51.19.63,1.81.64,2.79,0,.6-.53,1.21-.86,1.89,7.83,1.52,13.58-1.51,12.3-6.5,6.12-2.24,8.09-12.83,17.68-8.34v4.18l3.15-.69,1,1.26c-4.69,4.49-9.08,9.36-14.16,13.36-4.51,3.55-6.87,7.6-5.85,13,.84,4.45,1.58,8.93,2.38,13.39.53,2.93,1.09,5.85,1.64,8.78l1.46.4c4.72-7.34,12.82-12.34,14-22.16.18-1.46,1-3.73,2-4,4-1.25,3.24-3.79,2.5-6.59-1.12-4.19-1.43-8.92,2.6-11.13,5.23-2.87,10.52-7.51,17.45-4a3.39,3.39,0,0,0,2.85-.17c4.42-2.75,8.59-5.94,13.15-8.43a25.84,25.84,0,0,1,9.28-3c4.18-.47,5.5-2.22,3.38-5.92-.89-1.56-1.92-3-3-4.64,6.55-2.72,6.55-2.72,8.4-8.86,1.48,1,3,2.92,4.16,2.72,4.42-.73,6.51,2.24,9.25,4.6,3.5,3,6.12,2.07,8.07-2.19.53-1.16,1.86-2,2.9-2.85s3.42-1.88,3.39-2.76A5.85,5.85,0,0,0,1096.12,104.28Z"/><path class="cls-4" d="M411.82,424.65c-1.59.32-3.8-1.19-5.36-2.37-1.22-.91-1.95-2.53-2.77-3.91-1.6-2.71-3.65-3.51-6.61-2.09a5,5,0,0,1-3.25.18c-2.06-.6-4-1.54-6.88-2.69,1.63-5.29-2.64-6-7.2-6.5a4.18,4.18,0,0,1-2-.9c-3.09-2.4-6.11-2.29-9.24-.05-.56.4-1.44.35-2.95.67a30.74,30.74,0,0,1,1.45-2.76c2.35-3.4,6.91-6.53,1.08-10.8-.45-.33-.43-1.35-.54-2.07-.85-5.77-3.8-8.77-9.54-9.64-2.46-.37-5.11-.26-7.34-1.17a24.8,24.8,0,0,1-7-4.62c-4.21-3.81-8.05-8-12.25-11.84-.74-.67-2.59-.51-3.79-.21-5.29,1.35-9.75-.93-14.1-3.25-4.07-2.18-6.5-1.07-6.66,3.5a6,6,0,0,1-.07,2.17,10.83,10.83,0,0,1-1.72,2.15c-.67-.81-1.77-1.57-1.9-2.46-.17-1.23.39-2.56.62-3.86.32-1.82.62-3.65,1-6.09-6.37,4.56-12.72,7.4-15.11,12-4.81-.3-8.15-1.11-11.27-.59-5.74.95-11.43-3.65-10.65-9.5.55-4,1.64-8,2.43-12,.64-3.21-.61-4.69-4-4.4s-7,.55-10.52.61-4.58-1.58-2.39-4.26c3.59-4.38,3.08-9.62,4-14.55.57-2.88-1.17-3.72-3.68-3.05-3.37.9-5.34,3.19-6.55,6.49-1.74,4.76-12.27,7.14-15.12,3s-5.38-9.27-6.07-14.23c-.83-6,.33-12.22.82-18.34a8.82,8.82,0,0,1,5.85-8c5.78-2.41,11.49-4.2,18.2-.31-1.43-5.94,1-7,5.24-6.45a51.53,51.53,0,0,0,5.7.05c5.84.17,6.79,1.29,7.9,7.13a41.89,41.89,0,0,0,3.4,10.65c.78,1.57,3.26,2.3,5,3.4.66-2,1.64-3.94,1.85-6,.15-1.49-.67-3.11-1.16-4.64-.93-2.92-2-5.79-2.88-8.73-1.7-5.95-.05-10.7,5.35-13.32,8-3.85,13.09-8.88,11.81-18.68-.51-3.91.76-8.08,5.25-9.68,6.92-2.47,10.74-6.84,11.17-14.53.13-2.36,2.44-5.23,4.57-6.67,2.3-1.55,5.55-1.7,9-2.61a27.5,27.5,0,0,0-1.31,4.62c-.1,1,.5,2,.79,3a11.83,11.83,0,0,0,2.91-1.05c3.31-2.3,6.3-5.22,9.87-7,2.9-1.44,4-2.91,3.1-5.86a24.42,24.42,0,0,0-4.81-1.42c-6.82-.66-6.59-.55-5.34-7,.32-1.68-.86-4.24-2.21-5.46-.89-.8-3.75-.56-4.92.3-2.68,2-4.8,4.67-7.27,6.94a22.79,22.79,0,0,1-3.44,2.18L309,206.91c1.16-1.84,2-3.94,3.51-5.48,6.29-6.62,13.3-11.49,23.14-8.09a1.63,1.63,0,0,0,.44,0c3.51.1,6.7-.24,8.27-4.21.4-1,1.88-1.6,2.86-2.39l1.07.69a48.48,48.48,0,0,1-1.38,6.2c-1.13,3.16-2.71,6.15-3.84,9.3-1.37,3.78-.34,5,3.58,4.08,3.58-.84,6.76-.36,9.43,2.08,2,1.84,3.72,2.85,5.77.15,2.35-3.11,2.15-5.64-.79-7.77-3.4-2.46-6.83-4.88-10.7-7.64.76-.65,2.3-1.42,2.94-2.66.9-1.75,2-4.14,1.5-5.73-1.53-4.53-3.87-8.79-5.82-13.19-1.13-2.53-3-3.59-5.63-2.86-2.91.8-4.49-.54-6.21-2.77-2.48-3.23-2.64-6.24-.07-9.75-5.66-3.3-7.83-8.52-9.19-14.74a32.65,32.65,0,0,0-5.66,6.6c-1.25,1.9-1.9,4.89-5,3.51-2.71-1.2-6.11-2.57-5.29-6.55s1-6.92-4.36-6.9c-1.08,0-2.1-1.52-3.27-2.07a80.69,80.69,0,0,0-10.7-4.65c-1.77-.55-5.54-.07-5.74.67-.95,3.52-5.26,6.4-2.21,10.91.82,1.22.91,4.09.05,5.09-2.15,2.5-1.47,4.19.15,6.46,4.77,6.69,4.5,9.33-1.68,14.45-2.66,2.22-3.18,4.16-1,7,1,1.34,1.37,3.19,2,4.81,1.46,3.73-1.14,5.47-3.68,7-2.72,1.58-4-.71-5.14-2.57-.89-1.47-2-3.14-2-4.73-.05-5.62-3.35-8.77-7.67-11.41-2.49-1.53-5-3.11-7.33-4.84-4.25-3.13-8.39-6.23-14.1-6.31-1.2,0-3.08-1.76-3.39-3-.57-2.3-.79-4.26-3.76-4.46a2.36,2.36,0,0,1-1.53-1.76c.43-4.24.53-8.63,1.83-12.63,1.18-3.67,3.72-6.9,6.1-11.08,8.05.7,13.29-3.74,15.11-12.78.62-3.07,2-5.12,6.16-3.06,5.05,2.51,9-.69,8.76-6.29-.07-1.42-.26-3,.32-4.24,2.23-4.58,2.34-4.51-2.58-5.43a34.17,34.17,0,0,0-4.27-1c-1-.05-2.53.28-2.89.94-1.59,3-2.75,6.13-4.27,9.13a12.62,12.62,0,0,1-2.42,2.61,13.93,13.93,0,0,1-2.42-2.83,9.08,9.08,0,0,1-.48-3.45c-.24-6.3-1.14-7.19-7.2-6.49-2.58.3-3.47-.32-3-3.11.23-1.32-.31-3.51-1.28-4.17A84.09,84.09,0,0,0,234,80c-.28-.14-1.19.75-1.66,1.28-3.39,3.77-2.72,7.36,1.79,9.82s5.56,4.54,3.65,7.24c-1.46,2.07-2.35,4.56-3.92,6.51-.76,1-3.39,1.88-3.66,1.56-2.55-3.07-6-2.54-9.29-3-4.17-.53-8.24-1.75-12.39-2.49a80.36,80.36,0,0,0-10.34-1.34c-3.21-.14-4.37,1.7-3.66,4.9a11.43,11.43,0,0,1-.3,3.5c-1.08-.23-2.18-.4-3.24-.7-4.15-1.19-8.34-2.26-12.4-3.7a49.73,49.73,0,0,1-7-3.52c-2.52-1.36-4.85-3.51-7.53-4.11-9.23-2-18.59-3.57-27.9-5.31-4.06-.77-8.05-1.43-11.93.83-2.75,1.61-5.49,3.47-9,2a2.54,2.54,0,0,0-2.29.86c-2.36,5.4-5.26,4.33-8.8,1.15a10.18,10.18,0,0,0-4.79-2.09c-7-1.34-14.08-2.48-21.13-3.67-6.89-1.16-14-1.66-20.65-3.58-11.84-3.41-22.11-1.54-31.4,6.59-2,1.74-4.69,2.61-6.95,4.07a29.17,29.17,0,0,0-3.42,3,16.82,16.82,0,0,0,2.84,2.82c1.61,1,3.65,1.32,5.12,2.43,2.65,2,5,4.39,7.5,6.62l-1,1.58c-2.7-.86-5.4-1.7-8.09-2.58-4.29-1.41-7.16-.37-8.28,3s.9,6.66,5.1,7.72a14.82,14.82,0,0,0,5.15.14c2.37-.25,4.72-.8,7.11-1.23.53,6.12-.53,7.79-5.35,9.61-2.73,1-5.39,2.26-8,3.46-3.31,1.5-3.11,3.82-.71,5.74s5.55,3.22,8.12,5.12c1.63,1.21,3.87,3,4,4.6.38,5,2.85,4.54,6.25,3.44,2.88-.93,5.85-1.58,8.78-2.36.18.48.36,1,.55,1.43-5.86,9.88-14.56,16.75-24.72,22.4a11.63,11.63,0,0,0,5.92-.56c10.78-3.39,18.82-11,27.37-17.85a6.92,6.92,0,0,0,2-4.36c.41-3.74,2.38-6.78,6-8.06-.69,2.45-1.36,4.8-2,7.15l1,.72c3.28-2.07,8-3.4,9.52-6.37,2.75-5.21,5.06-3,8.32-1.46,3.64,1.7,7.44,3.71,11.31,4.1,5.6.56,11.09.5,15.65,4.49a4.54,4.54,0,0,0,3.27,1.06c4.87-.8,7.22,2.27,9.32,5.75,1.82,3,4.15,5.87,5.16,9.13,3.34,10.72,12.07,19,13.37,30.61a1.05,1.05,0,0,0,.16.4c5.61,10.46,7.44,21.82,7.81,33.47.39,12.39,5.3,23,12.79,32.49,1.16,1.48,3.38,2.09,4.92,3.33,1.94,1.55,4.07,3.08,5.42,5.1,1.25,1.87,1.67,4.33,2.31,6.58a107.05,107.05,0,0,0,14.25,30,41.7,41.7,0,0,0,3.82,4.29l1.56-.86a39.88,39.88,0,0,0-1.94-5.44c-4.25-8-8.69-15.9-12.88-23.92-.83-1.59-.9-3.58-1.31-5.38l1.3-.55a14.16,14.16,0,0,1,2.3,2.2c7.72,11.91,15.42,23.83,23,35.82a8,8,0,0,1,1.47,4.91c-.88,5.48,2.1,8.72,6.17,11.09,6,3.53,12.34,6.62,18.5,9.94,3.41,1.84,6.6,2.45,10.07-2.72,1.38,2,2.39,3.62,3.48,5.13a17.47,17.47,0,0,0,12.75,7.64,7.33,7.33,0,0,1,6.8,5.94c1.34,6,4.87,9.89,10,13,3.88,2.34,7.05,4.18,11.35.66,2.9-2.37,5.32-1.07,6.63,2.41a20.62,20.62,0,0,1,1,11.11,29.43,29.43,0,0,1-7.55,15.59c-4.46,5.07-4.84,7.34-1.63,12.9.61,1.05.44,3.73-.26,4.14-4.56,2.68-3.51,5.75-1.21,9.19a32.65,32.65,0,0,1,3.12,5.26c3.39,8.06,6.63,16.18,10,24.26,1,2.48,1.63,5.4,3.37,7.24a45.83,45.83,0,0,0,9.89,7.93c4.63,2.72,5.85,6.54,5.53,11.45-.61,9.2-1,18.42-1.71,27.61-.15,2.14-1.05,4.21-1.47,6.34a65.2,65.2,0,0,0-1.36,8.06c-.26,3.63.24,7.36-.3,10.94-1.18,7.79-2.87,15.51-4.25,23.28a69.38,69.38,0,0,0-1.06,9.08c-.1,2.76-.64,6.06.6,8.2,4.12,7.06-.16,13.54-.61,20.24-.17,2.49-2.18,5-2,7.34.76,8.72,1.89,17.42,3.32,26,.71,4.24,4.62,6.7,9,6.86,2.3.08,4.78,0,6.85.84,3.48,1.39,6.06.17,8.84-1.5-.28-.52-.36-.84-.56-1a2.83,2.83,0,0,0-1.15-.6c-5.78-1.11-8.88-4.66-9.67-10.42a5.48,5.48,0,0,0-1.07-2.37c-2.15-2.85-1.1-4.75,1.17-7.15a70.9,70.9,0,0,0,8-10.82c.53-.85,0-3.27-.88-4-3.95-3.18-4-6.06.31-8.68s5.89-5.83,4.76-10.58c-.44-1.83-1.56-3.49-2-5.32-.56-2.24-.38-4.33,2.91-3.51,5.78,1.44,7.56-.22,6.63-6.24a13.48,13.48,0,0,1,.15-2.61,14.9,14.9,0,0,1,2,.17c6.47,1.53,9.58.65,12.4-3.55s2.46-7.11-1.62-12.68c-1.71-2.34-3.23-4.82-4.83-7.24l1.07-.91c2.41,1.8,4.75,3.7,7.23,5.4,2.72,1.88,5.37,2.76,8.13-.32,4.39-4.91,5.17-12.1,10.5-16.37.31-.25.39-.78.59-1.17,1.24-2.31,2.78-4.51,3.63-7a35.52,35.52,0,0,0,1.29-7.38c.24-2-.5-4.71.55-5.79,2.89-3,6.64-5.08,9.77-7.85,2.78-2.46,6-2.94,9.41-3.67,1.45-.3,2.73-2.72,3.54-4.44a86.59,86.59,0,0,0,3.37-8.95c1-3,2.39-5.93,2.79-9,.47-3.6-.09-7.32.08-11a11.39,11.39,0,0,1,1.32-5.38,70.54,70.54,0,0,1,8.08-11.36c4.82-5.14,4-10.95,3.12-16.91C415.68,425.27,414.77,424.06,411.82,424.65Z"/><path class="cls-4" d="M455.64,78.48c-2.51-4.67-1.28-7.93,3.81-10.07a5.94,5.94,0,0,0,2.13-2c2.93-4,2.57-8.47.9-12.56-1.47-3.57-.9-6.38.68-9.56,1.2-2.44,1.68-5.23,2.71-7.76,1.16-2.87,1.95-6.31,4-8.28,3.67-3.45,8.15-6.07,12.42-8.83,1.65-1.07,3.74-1.74,2.54-4.17-1.1-2.2-2.5-4.7-5.64-3.7-9.84,3.16-19.64,6.46-29.45,9.72-1.09.36-2.16.76-3.24,1.14l-.61-1.07c4-5.33,13.12-5.39,14.81-14.34-6.63-.9-13.08-1.65-19.49-2.7-3.8-.62-7.52-1.78-11.3-2.59A33.17,33.17,0,0,0,422.8.61c-4.51.05-9.13,1.31-13.49.64-6.57-1-7.7-1.12-11.21,3.86C390.07,3.66,388,4,379.69,8.19a3.52,3.52,0,0,1-2.1.44c-9.66-1.93-18.87,1-28.22,2.48-3.31.51-6.69.66-9.95,1.39-1.19.26-3.16,1.95-3,2.56,1.47,6-2.68,5.11-6.13,5.37-4.28.32-8.57.8-12.69,5.1L328,27.18c-2.14,2.1-3.19,3.92-4.7,4.46a93.16,93.16,0,0,1-10.53,2.64c-3.3.76-6.61,1.47-11.07,2.47,1.83,2,2.49,3.41,3.51,3.75,5.94,2,8.14,7.67,11.78,11.8,2.12,2.4,3.48,2.22,5.88,1.23a19,19,0,0,1,7-1.84c14.67.07,25,10.46,25.11,25.08.05,5.3.57,5.46,5.61,3.57,2-.74,4.95-1.18,6.47-.2a10.56,10.56,0,0,1-1.25,18.34c-5.31,2.62-6.55,5.28-4.93,11,3.08,10.91,8.88,20.34,16.24,28.82,1,1.2,3.24,1.83,4.94,1.92,2.55.12,4.55.43,5.57,3.16.36,1,1.36,1.67,2.42,2.91,1.87-4.43,4.5-8.19,4.86-12.15.51-5.62,3.05-9.69,5.8-14.31,2.86-4.81,7-7.06,11.43-8.71,6.2-2.33,10.76-5.81,13.53-11.82.36-.78,2-1.31,3.09-1.34,2.82-.09,6.18,1.19,8.38.07a140.14,140.14,0,0,0,16.62-10.59C456.87,85.24,457.49,81.93,455.64,78.48Z"/><path class="cls-4" d="M987.42,510.47c-.78-2.86-1.3-5.88-2.58-8.52-2.63-5.41-5.52-10.72-8.67-15.84a12.54,12.54,0,0,0-5.37-5c-2.81-1.12-3.63-2.54-3.91-5.41a83.09,83.09,0,0,0-2.47-12.43c-.26-1-1.61-2.49-2.4-2.45-2.63.1-2.57-1.46-3-3.29-.79-3.31-2-6.51-3.08-9.76l-1.73.25-3.89,26.62c-6.13-4.39-11-7.72-15.64-11.39-.61-.48,0-2.8.38-4.15.67-2.21,1.65-4.33,2.65-6.88-5.72-.5-10.05-1.77-15.12,0-4.79,1.69-8.89,5.75-7,12.1-3-2.21-5-4-7.2-5.18a4,4,0,0,0-3.74.34c-2.75,2.83-5.13,6-7.68,9-.52.61-1.41,1.67-1.78,1.53-4.28-1.51-3.31,2-3.66,3.89-.48,2.63-.77,4.9-3.86,6.22-6.89,2.94-13.59,6.33-20.28,9.71-1,.51-2.27,1.93-2.24,2.9.21,6.72,0,13.58,1.33,20.12,1.58,8,5.39,15.43,5,23.91-.09,1.94,1.26,5,2.78,5.68,1.8.79,4.53-.29,6.79-.82,3.17-.74,6.26-1.8,9.43-2.54,1.81-.43,4.53.23,5.44-.81,5.7-6.55,13.69-6.82,21.21-8.28,6.58-1.28,10.05.73,13.07,6.63.82,1.61,1.92,3.07,3,4.79l6.35-4.72c1.07,3.32,1.17,7.19,3.13,8.83,2.9,2.42,2.43,6,4.33,8.15,2.79,3.1,6.65,5.41,10.44,7.3.93.46,3.32-2,5.32-3.31l4.69,5c2.62-3,4.44-6.89,9.26-6.43.4,0,1.11-2.27,1.52-3.54,1.79-5.53,2.45-11.82,5.59-16.41a25.46,25.46,0,0,0,4.49-13.2c.3-3.63,1.43-7.1-.8-10.5C987.19,512.11,987.61,511.16,987.42,510.47Z"/><path class="cls-4" d="M317.66,87.58A30.44,30.44,0,0,0,312,84.35c-4-2.08-8.45-3.56-11.95-6.27-5.28-4.11-10.34-5.3-16.64-2.58-5.72,2.46-6.37,1.61-6-4.42.1-1.69-.94-4.33-2.25-5s-4.21-.12-5.42,1c-1.71,1.56-2.59,4.08-3.65,6.27a17.78,17.78,0,0,0-.9,3.39l-1.75-.33c.61-3.27,1.22-6.54,1.83-9.79-4.13-.65-10.06,1-12.45,3.31-3.26,3.18-3.13,13.17.57,14.8a76.44,76.44,0,0,0,13.18,4,43.16,43.16,0,0,0,9.14,1.08,67.94,67.94,0,0,0,8-.67l.45-1.53a22.73,22.73,0,0,0,2.44,3.86c1.44,1.55,3,3.71,4.83,4,8.21,1.57,6.47,4.23,6.25,9.56-.07,1.87-1.95,3.66-3.1,5.64.47.93,1,2.07,2,3.92a70.34,70.34,0,0,0-7.39-1.07c-1.3,0-3.21.22-3.78,1.07s-.28,2.79.27,4c1.42,3,4.08,4.06,6.89,2.27,3.46-2.2,5.74-.73,8,1.61,4.8,4.87,10.25,8.68,16.92,10.59,1.89.54,3.74,1.24,5.61,1.87l.72-1.35-8-7.18.82-1.23c2.08,1.13,4.08,2.41,6.24,3.34,1.4.6,4.17,1.23,4.35.88.82-1.67,1.67-3.92,1.15-5.51-.62-1.88-2.57-3.39-4.08-4.91-1.94-2-4.27-3.58-5.95-5.73-.87-1.11-.68-3-1-4.6,1.75.54,3.95.6,5.15,1.73,1.86,1.77,2.85,4.44,4.61,6.35.83.91,3.5,1.66,3.8,1.28,2.6-3.32,4.85-6.91,7.64-11.07-7.17-2.58-13.16-4.6-19-6.9-3.18-1.24-3.94-4.51-1.57-6.91C320.18,91,319.48,89.1,317.66,87.58Z"/><path class="cls-4" d="M249.4,18.62c4.36,1.59,9,2.49,13.48,3.67,1.38.37,2.75.77,4.13,1.16,0,.49-.09,1-.13,1.47a49.68,49.68,0,0,0-6.11.71,13.09,13.09,0,0,0-3.28,1.84,17.44,17.44,0,0,0,1.94,3.06c1.26,1.34,2.74,2.47,4.26,3.79C254.8,39,254.8,39,257.4,45.91l-5,3.66c.14.5.28,1,.41,1.49l12.79-.68a18,18,0,0,0,5.84.12c2-.48,3.76-1.74,5.41.56a1.79,1.79,0,0,0,1.51.68c2.47-.72,4.9-1.59,7.34-2.42L283,43.09c3.12-1.46,6.42-2.78,9.46-4.54,1-.56,2-2.49,1.74-3.41-1-3.34.7-4.22,3.37-4.68,4.44-.76,7.84-3.08,11.37-6,3.92-3.21,9-4.58,11.62-9.89.73-1.51,5.61-1.07,8.6-1.39,2.32-.25,5.06.09,5.13-3.3.07-3.23-2.51-3.41-4.89-3.77a145.81,145.81,0,0,0-49.26,1.38c-9.78,1.86-19.37,5.14-29.59,4.19-1.24-.12-3.79,1.74-3.74,2.54C246.87,15.81,248.08,18.14,249.4,18.62Z"/><path class="cls-4" d="M155.4,81.63c2.61-1.68,4.8-4,7.62-6.41.16,1.58.33,2.68.37,3.78A15.74,15.74,0,0,0,177,94.3a3.52,3.52,0,0,1,2.28,1c3.33,5.12,7.44,3.58,11.39,1.23,4.53-2.7,9-3.19,13.71-.71a9.81,9.81,0,0,0,2.49.81A7.39,7.39,0,0,0,215,92c1.18-3.46-1.75-4.28-3.8-5.38-3.5-1.88-6.28-4.14-7.1-8.33A7.37,7.37,0,0,0,202,74.56c-1.26-1.16-3.17-2.7-4.47-2.44s-1.88,2.69-3.21,4.84a2.71,2.71,0,0,1-1.16-.55,26.55,26.55,0,0,0-16.92-6.08c-2.59-.06-5.17-2.21-7.68-3.55-1.37-.73-2.48-2.08-3.91-2.55-3-1-6.08-1.43-9.06-2.35-3.28-1-7.66.28-7.19,2.46.78,3.61-1.9,4.81-3.48,7-1.19,1.63-2.76,4-2.37,5.58C143.78,81.93,151,84.49,155.4,81.63Z"/><path class="cls-4" d="M559.41,30.54c3,2.15,3.65,4.91,3.17,8.42-.78,5.68,2.38,9.89,6.2,15.36l7.45-19,1.54.41a16,16,0,0,0,.27,4.12,13.24,13.24,0,0,0,2.74,5.31c.62.62,3.92-.06,4.08-.66a10.71,10.71,0,0,0,0-6.17c-1.39-3.82-3.57-7.36-5.12-11.13-.57-1.41-.29-3.16-.39-4.76,4.61,4.12,4.62,4.13,8.39-.07a17.89,17.89,0,0,0,3.24-4.1c.51-1.1.62-3.08,0-3.9A11.93,11.93,0,0,0,573.88,13c-2.76,2.59-5.35,2.55-8.29.72-1.11-.69-2.2-1.42-4.21-2.72-1.6,3.87-3.09,7.14-4.33,10.51S556.21,28.24,559.41,30.54Z"/><path class="cls-4" d="M969.23,425.72c-6.72-7.89-16.36-11-25.25-15.26-3.31-1.59-6.92-1.72-8.44,3.07-.32,1-1.44,1.71-3.25,3.75-1.39-3.18-2.83-5.41-3.28-7.83-.57-3-1.72-4.17-4.7-3.22-1.34.42-2.7.79-4.87,1.41,2.09,3.1,3.3,6.44,5.68,8.07,4.27,2.93,9.33,4.7,13.9,7.24a6.32,6.32,0,0,1,2.68,3.66c1.13,4.69,3,8.58,8,10.26,3.34,1.13,6.62,2.85,9-1.59a2.72,2.72,0,0,1,2.49-.92c2.54,1.23,6,2.19,7.16,4.32,2.53,4.54,6.57,5.13,11.51,6.61-1-4.92-4.75-6.8-7.15-9.65-1.07-1.28-2.47-3.61-2-4.62C972,428.43,970.54,427.25,969.23,425.72Z"/><path class="cls-4" d="M872.55,382.05c-2.22,3.23-5.32,5.9-8.25,8.57a82.45,82.45,0,0,1-7.18,5.16c-6.13-.19-7.72,2.12-5.14,9.75a45.27,45.27,0,0,0,1.79,4.47c1.77,3.72,13,8.69,16.88,7.52a3.39,3.39,0,0,0,.41-.15c4.25-1.8,7.67-8.71,6.87-13.47a9.9,9.9,0,0,1,.57-3.45c.37-1.81,1.49-3.84,1-5.37-1-3.2-2.15-5.85.91-8.73,1.69-1.59-.38-7.86-2.6-8.31C874.78,377.43,874,379.92,872.55,382.05Z"/><path class="cls-4" d="M673.81,452.25c-1,1.84-1.67,3.92-3,5.46-2.48,2.9-4.89,6.25-8.09,8.05-5.28,3-6.8,6.08-4.73,11.93.74,2.09,1.22,5.67.07,6.81-6,5.92-3,11.92-.76,17.82,1.49,4,4.86,4.34,8,1.58,4.48-3.9,4.84-9,4.79-14.42a25.47,25.47,0,0,1,1.21-7.09c.78-2.74,2-5.34,2.89-8.07s.85-5.62,2.09-8c2.7-5.2-.27-9.31-1.26-13.82Z"/><path class="cls-4" d="M506.42,169.53,513.9,174c-.16.61-.32,1.22-.47,1.83-1.79.8-3.57,1.6-4.43,2-1.82,6.07-3.44,11.49-5.11,17.05a8.29,8.29,0,0,0,1.64,0c5.9-1.43,12.18-2.11,17.54-4.69,2.56-1.24,3.37-6.11,5-9.34a9,9,0,0,1-2.25-.91,12.81,12.81,0,0,1-2.64-2.61c-.8-1.09-1.16-2.53-2-3.56-4.47-5.3-10.11-10.16-5.2-18.7h-6.85c1.38-1.91,2.4-3.34,3.51-4.89-4.79-1.84-8.88.83-9.09,6.34-.17,4.58,1,9.21,1.6,13.82Z"/><path class="cls-4" d="M680,77.3c5.2,4,11.09,6.82,19.38,6.06-2.51-1.8-4-3-5.68-4-2.87-1.69-3.59-4.15-1.66-6.6,3.39-4.33,6.66-9.09,11-12.25A49.24,49.24,0,0,1,726.37,51c1.27-.15,2.92-.5,3.59-1.37a10.3,10.3,0,0,0,2-5c.08-.83-1.54-2.66-2.25-2.59a15,15,0,0,0-4.88,1.87c-1.61.79-3,2.16-4.71,2.55-3.84.91-7.93.9-11.63,2.12-5.61,1.84-11.61,3.37-15.19,8.83-3.34,5.1-6.16,10.54-11.87,13.73C679.4,72.26,677.26,75.23,680,77.3Z"/><path class="cls-4" d="M231.07,42.89c-.66,6,1.23,9.41,5.5,8.82,5.09-.69,6.5,1.92,7.16,5.9.69,4.19,3.28,4.63,6.74,3.7a7.67,7.67,0,0,1,3.18-.42c2.43.45,4.77,1.52,7.2,1.73,3.17.28,6.54-.63,9.58,0,8.12,1.78,7.89-.14,10.82-6.71-5.1-2.37-10.14-3.62-15.21-.09-2.19,1.53-3.89,2.21-6-.33-.69-.85-2.69-1-4-.86-2.88.27-4.77-.52-5.7-3.46-.86-2.71-2.64-3.52-5.71-3.35-2.59.14-5.27-1.38-8-2.21l1.74-3.71L222.84,32.4C222.25,40,223.88,41.83,231.07,42.89Z"/><path class="cls-4" d="M841.81,424.1c2.2-2.47,2.48-5.05.44-7.92-2.28-3.19-4.1-6.72-6.49-9.81-3.16-4.1-6.65-7.95-10.06-11.85-2.19-2.5-4.76-4.71-6.66-7.39-2.72-3.84-6.21-4.64-10.94-4.08.4,1.16.42,1.69.69,2,9.53,10,15.18,22.38,21.61,34.31a17.51,17.51,0,0,0,4.41,4.77C837,425.92,839.54,426.65,841.81,424.1Z"/><path class="cls-4" d="M925.88,258.65c-1.38.07-2.84,1.33-4,2.32a21.14,21.14,0,0,0-7.17,13.24c-.07.56-.16,1.11-.45,3.18,2.3-1.27,4.41-1.72,4.88-2.86.78-1.89.37-4.24.74-6.35.2-1.12,1-2.15,1.86-3.93.82,3,1.26,4.6,1.85,6.73l5.83-5.17c.19.31.39.61.59.92,1.29-.3,3.35-.22,3.72-1,1.48-3,3.76-3,6.53-2.85,4.8.23,7.93-2.77,8.3-7.64.17-2.18,0-4.39.25-6.56.13-1.22.43-2.82,1.27-3.5,3.64-3,2.18-6.29.84-9.51a3.28,3.28,0,0,0-2.7-1.56c-.69.08-1.51,1.48-1.77,2.43-.49,1.81,0,4.13-1,5.51C940.37,249.24,936.69,258.12,925.88,258.65Z"/><path class="cls-4" d="M477.41,110.75c-1.06-1-3.11-1.31-4.72-1.35-2.31-.05-4.73.94-6.95.56-3.14-.53-6-1.3-7.68,2.85-1.06-2-1.8-3.48-2.81-5.43l-6.52,5.5c2.08,3.37,4.42,5.9,5.26,8.86s2.28,3.5,4.79,4c6.81,1.47,11.67-2.64,17.07-5.41C482.7,116.85,483,116.06,477.41,110.75Z"/><path class="cls-4" d="M167.36,56.31c-.58.7-1.34,1.78-1.15,2.44a2.86,2.86,0,0,0,2.23,1.53c2.71,0,5.42-.35,8.14-.56.38,4.33,2.91,6.06,7.19,4.19,3.93-1.71,7.64-3.27,12.14-2.32,3.57.76,3.42-2.32,3.53-4.61s1.2-5.14-2.82-4.85c-2.9.21-3.86-1.31-4.15-3.85a11,11,0,0,0-1.08-2.65c-4.19,4-4.26,5-.8,10C185.15,58.3,182,54.44,178.65,52c-5.05-3.58-5.42-3.58-8.54,1.6C169.48,54.69,168.18,55.33,167.36,56.31Z"/><path class="cls-4" d="M239.56,36.7c1.56,1.45,3.85,3.09,5.76,3a22.9,22.9,0,0,0,8.61-2.78c3.9-2,3.85-3.28.75-6.39a9,9,0,0,1-1.5-3.29c-.34-.92-.2-2.31-.82-2.77-3.75-2.83-7.65-5.44-12.3-8.68-1.75,4.64-3.51,9.34-5.33,14.17L241,31.78C240.34,33.84,239.06,36.22,239.56,36.7Z"/><path class="cls-4" d="M1047.32,568.65c-.11,0-.29,0-.43.06s-.59.3-.66.52c-2.12,7.25-4.18,14.2-13.45,15.83-1.93.34-3.13,4.82-4.66,7.4,2.16,1.18,4.21,2.81,6.52,3.38a5.64,5.64,0,0,0,4.81-1.54c3.7-4.85,7.11-9.94,10.36-15.11C1054.11,572.32,1054,572.25,1047.32,568.65Z"/><path class="cls-4" d="M805.5,25.68a8.29,8.29,0,0,0,1.26,2c3.6,3,7.19,5.92,10.93,8.68a4,4,0,0,0,3.2.16c3.55-1.34,7.49-9.3,6.5-12.84a2.92,2.92,0,0,0-.62-1.13c-1.32-1.48-10.65-2.89-12.49-1.86C811.48,22.21,808.73,23.83,805.5,25.68Z"/><path class="cls-4" d="M225.36,66.75c-1.59-.25-3.19-.45-4.78-.67l-.77-1a91.63,91.63,0,0,0-8.66,6.57c-.54.49.15,3.35,1.1,4.21a55.16,55.16,0,0,0,8.17,5.73c.88.54,2.56.83,3.27.35,2-1.35,4.91-3,5.1-4.82.33-3.22-1-6.63-1.81-9.94C226.92,66.92,225.93,66.84,225.36,66.75Z"/><path class="cls-4" d="M883.72,403.28c-.44,6.67-1.18,13.32-1.94,21.42,2.4-1,4.29-1.16,4.88-2.13.81-1.34.64-3.27.89-4.95a9.81,9.81,0,0,1,1.92,3.8c1,3.14,2.74,2.5,4.46.72,2.09-2.14.68-3.89-1.16-5-3.22-1.88-3.41-3.6-.4-5.82A10.38,10.38,0,0,0,894.1,409a6.47,6.47,0,0,0-1.46-.75c-2.66-.41-6.53-.12-5.8-4,.65-3.51,4.35-2.47,7.06-2.3.29,0,.59.2.85.14,2.29-.54,4.57-1.11,6.85-1.67-4.94-.54-9.52-.45-14.09-.58C885,399.76,883.89,400.59,883.72,403.28Z"/><path class="cls-4" d="M664.76,15.32c0,2.17-.36,3.6.1,4.68s1.71,2.67,2.66,2.7c7.32.23,12.12-5.87,10.29-13.22-.9.51-2,.78-2.48,1.48-2.37,3.73-4.86,3.39-8.34,1.25-4.57-2.81-13.51-.54-17.18,3.77C654.69,20.18,659.66,18.7,664.76,15.32Z"/><path class="cls-4" d="M150.68,56c4.24-.77,8.29-2.57,12.63-4-.14,1.45-.26,2.76-.39,4.07a29.83,29.83,0,0,0,6.61-8.45c1.25-2.61-2.05-7.89-4.07-7.1a53.81,53.81,0,0,0-8.93,4.81c-3,1.89-5.75,4.1-8.62,6.17l-1.19-.63C146.81,53.5,147.05,56.64,150.68,56Z"/><path class="cls-4" d="M212.25,57.93c2.54.23,5,1.17,7.57,1.35,1.51.12,3.83-.1,4.49-1.05,1.82-2.68,1.53-9.77.1-10.48a1.53,1.53,0,0,0-.42-.11c-3.38-.38-7-2.56-9.29,2.44-.67,1.47-3.21,2.1-5,3.17a40.45,40.45,0,0,0-3.2-5.73c-.54-.68-2-.84-3.07-.77-.42,0-1.08,1.32-1.05,2C202.52,51.81,209.18,57.67,212.25,57.93Z"/><path class="cls-4" d="M1059.66,557.27a19,19,0,0,1-4.67-7.94c-1.14-3.44-3.84-6.33-7.48-6.38,1.42,6.78,11.63,11.54,5.13,20,.82,2.31,1.57,4.61,2.49,6.84a19.76,19.76,0,0,0,1.83,3,16.63,16.63,0,0,0,2.6-2.49c1.88-2.74,3.62-5.58,5.35-8.43.85-1.39,1.55-2.89,2.1-3.94C1064,557.71,1060.94,558.44,1059.66,557.27Z"/><path class="cls-4" d="M277.81,122.08c-1.63-1.56-3.93-2.44-6-3.55-8.38-4.5-8.18-4.42-11.59,4.12-1.27,3.19-.06,4.62,2.27,6,2.58,1.52,4,.09,5.28-2,.63-1.06,1.47-2,2.36-3.19,1.42,1.5,2.33,3.28,3.64,3.64,1.63.46,3.59-.23,5.41-.43C278.77,125.09,278.81,123,277.81,122.08Z"/><path class="cls-4" d="M946.71,58.65c3.81.06,7.69-1,11.43-2,1.13-.31,2.71-2,2.64-3-.08-1.2-1.44-2.65-2.63-3.35s-3.29-.42-4.53-1.24c-2.54-1.66-3.68-.44-4.54,1.67a3.63,3.63,0,0,1-1-.19c-2.62-1.41-5.37-2.08-7.5.5-.82,1-1.25,3.72-.68,4.17C941.88,56.77,944.38,58.61,946.71,58.65Z"/><path class="cls-4" d="M488.18,184.68c1.3,1.36,2.17,3.09,3.35,3.34,4.13.87,9.58-5.17,9.12-9.46a6.72,6.72,0,0,1,1.06-4.15c1.79-2.64.92-6.34-1.71-5.75-3.13.69-6,3.3-8.53,5.59-.92.84-1.28,3.85-.55,4.67C494,182.42,491.14,183.26,488.18,184.68Z"/><path class="cls-4" d="M806.56,23.55c3.86-3.15,7.81-5.07,9.29-8.16.69-1.45-2.88-6.68-5.41-7.52-3.91-1.29-11.28,5-10.43,8.52C800.6,18.86,803.82,20.71,806.56,23.55Z"/><path class="cls-4" d="M868.06,436.84c-.41-.84-.6-2-1.27-2.45-4.47-3-8-8.42-14.84-5.38-1,.44-2.72-.71-4.09-1.18s-2.44-.93-4.28-1.64c-.87,1-2.75,2.39-2.54,3.25.34,1.47,1.78,3.45,3.12,3.79,7,1.79,14.19,3.18,21.32,4.56C866.25,437.94,867.2,437.18,868.06,436.84Z"/><path class="cls-4" d="M180.17,41.43c1,.16,1.94,1.41,2.91,1.41,2,0,4.62.17,5.86-1,1.49-1.36,1.81-4,2.64-6.08l1.56-1.09c-2.76-1.21-5.52-3.42-8.26-3.38-3.27,0-6.52,2-10.33,3.31C173.94,39.24,174.94,40.59,180.17,41.43Z"/><path class="cls-4" d="M235.63,76.72c1.16.59,3.7-1.26,5.5-2.25a8.54,8.54,0,0,0,2.55-2.36c1.59-2.08,3-4.26,4.54-6.41-2.6-.54-5.2-1.48-7.82-1.56-6.64-.19-6.92.23-7.84,7.08C233.54,73.14,234.08,75.92,235.63,76.72Z"/><path class="cls-4" d="M206,39.06c3.84-2.86,6.57-.75,9.48,1.45,1.15.87,2.91.94,4.39,1.37.37-1.74,1.14-3.53,1-5.23a4.13,4.13,0,0,0-2.47-3c-4.17-.87-8.2-1.58-10.9-5.51-.45-.65-2.63-.3-3.94,0-.41.08-1,1.51-.79,2.11C203.64,33,204.76,35.71,206,39.06Z"/><path class="cls-4" d="M959.06,195.3c-.37-4.88-.58-8.76-1-12.61-.26-2.52-.77-5-1.18-7.5l-1.66-.2c-1,3.94-2.71,7.87-2.74,11.82-.06,7.87.82,15.75,1.31,23.69l2.8-.23C955.07,204.05,954.13,198.31,959.06,195.3Z"/><path class="cls-4" d="M292.65,321.52c-3.42-1.94-7.12-3.46-10.27-5.76-5.73-4.18-13.65-3.83-19.31,2l7.66,2.47c-.27-2.26-.4-3.41-.53-4.46,6.78-1.79,10.26,4.33,15.56,5.61.34.08.58.63.82,1,2.74,4,5.16,4.65,10.51,2.09C295.25,323.25,294,322.29,292.65,321.52Z"/><path class="cls-4" d="M835.91,37.28c2-.38,5,.58,4.93-2.77,0-3-.31-6.2-4.23-7.22a32,32,0,0,1-4.79-2.16q-3.06,6.78-6.42,14.22C829.24,38.59,832.57,37.91,835.91,37.28Z"/><path class="cls-4" d="M947.74,225.49c-1.1.4-1.91,2-2.44,3.22-.15.35,1.59,2,1.78,1.91a17.28,17.28,0,0,0,2.74-2.3c2.19.27,4.52,1.23,6.29.6,2.42-.86,4.42-2.92,7.13-4.85-.16-.54-.58-2-1.14-3.85-7.28,3.19-7.69-3.8-10.69-7l-1.41.41a29.33,29.33,0,0,0,.65,4.11C951.69,221.11,951.92,224,947.74,225.49Z"/><path class="cls-4" d="M114.3,159c-1.28-1.41-3.5-2-5.3-2.92L107.79,158a51.25,51.25,0,0,1,4.4,6.19c1.81,3.51,4.41,7.2,4.5,10.86.13,5.57,3.21,8.28,7.1,12.12-1.7-5.42-4.08-9.8-4.21-14.26A20.39,20.39,0,0,0,114.3,159Z"/><path class="cls-4" d="M693.66,23.75c.59-1.3,1-1.71.89-2-1.63-6.81-.56-12.49,6.2-16.17.64-.35.42-2.29.6-3.49-1.13-.14-2.54-.78-3.36-.33a103.71,103.71,0,0,0-10,6.17c-.92.65-1.28,2.11-1.9,3.2l1.59.17Z"/><path class="cls-4" d="M886.92,348.33c.54.74,1.19,1.76,1.94,1.92,2.67.55,5.42.79,8.13,1.14l1-.46c-1.43-1.19-2.7-3.07-4.32-3.44-5-1.13-5.51-2.08-3.43-6.87a21.1,21.1,0,0,0,1.41-7.25c.05-.83-1.65-2.59-2.1-2.45-1.2.36-3,1.44-3.06,2.39C886,338.31,883.35,343.45,886.92,348.33Z"/><path class="cls-4" d="M313.86,333.24c.53-.27.42-3.32.16-3.38-4.11-1.1-8.36-2.73-12.45-2.43-1.71.12-3.11,4.46-4.78,7.08C305,336.09,308.65,335.89,313.86,333.24Z"/><path class="cls-4" d="M959.8,569.94c2.26,4.12,4,7.68,6.21,11,.32.49,3,.26,3.71-.49a11.26,11.26,0,0,0,2.59-9.65Z"/><path class="cls-4" d="M766.75,367c-4.21,5.18-4,9.16.75,14.8C775,376.68,774.63,371.42,766.75,367Z"/><path class="cls-4" d="M362.92,95.34c2.31-1.61,4.86-3.31,6.18-5.62.43-.74-2.59-3.54-4.17-5.28a10,10,0,0,0-2.55-1.37c-1.31,2.3-2.84,4.07-3.32,6.08-.38,1.58.3,3.57,1,5.15C360.39,95,362.41,95.7,362.92,95.34Z"/><path class="cls-4" d="M892.46,373.53l5,1.43c.15,3.16,1.11,5.62,5.35,5.49-1.31-4.59,4-8.82.08-13.44L892.09,372C892.22,372.48,892.34,373,892.46,373.53Z"/><path class="cls-4" d="M708.35,19.69c1.33-.79,3.54-1.42,3.63-2.28a43.26,43.26,0,0,0-.22-9.51c-.1-.89-1.38-1.65-2.13-2.47a24.63,24.63,0,0,0-2,2.36,20.74,20.74,0,0,0-2.51,4.43,11.63,11.63,0,0,0-.73,5.46C704.56,18.46,706.68,18.89,708.35,19.69Z"/><path class="cls-4" d="M978,58.45c.66-.28,1.53-1.19,1.49-1.74-.09-1-.61-2.79-1.22-2.92-4.68-1-9.43-1.63-15-2.53C966.1,57.13,973.64,60.27,978,58.45Z"/><path class="cls-4" d="M229.69,94.81c.17.54,1.06.71,1.95-.61a3.33,3.33,0,0,0,.47-1C230.09,93.35,229.53,94.27,229.69,94.81Z"/><path class="cls-4" d="M721.14,10.93c-.15-3-.17-5.79-.46-8.52S718.74-.54,716.77,1c-3.68,2.83-3.86,6.79-.49,11.55Z"/><path class="cls-4" d="M1077.46,80.08c.1-.93-3.33-2.25-5.66-3.72l-5.42,3.43c1.71.83,3.36,2.16,5.14,2.36C1073.69,82.39,1077.05,83.66,1077.46,80.08Z"/><path class="cls-4" d="M896.67,363.57c.36-.68-.4-2.35-1.15-3.09a32.91,32.91,0,0,0-4.45-3.2l-1.35.64a40.66,40.66,0,0,0,1.16,6.05c.41,1.19,1.59,2.13,2.43,3.18C894.47,366,895.94,365,896.67,363.57Z"/><path class="cls-4" d="M984.55,423.19c1.72-1.62,2.81-3.08.65-4.84l-10.66,7.35C978.34,428.05,979.85,427.62,984.55,423.19Z"/><path class="cls-4" d="M234.38,53.29l-1.91.39-2.24,6.46,8.64.62Z"/><path class="cls-4" d="M552.48,242.66c.72-3.24-.62-5.81-4.46-7-.33,3.35-3.18,6.58.69,9.13C549.31,245.16,552.26,243.65,552.48,242.66Z"/><path class="cls-4" d="M892.36,303.89c-5.9,2.85-6.94,7.15-3.2,12.66C890.38,311.74,891.37,307.81,892.36,303.89Z"/><path class="cls-4" d="M296.23,100.49l-7-2.1c-.39,1.94-1.66,5.16-1,5.59C290.83,105.77,293.31,104.48,296.23,100.49Z"/><path class="cls-4" d="M567.44,249l-8.05,1.49c0,.51-.09,1-.13,1.53l9.8,3.55Z"/><path class="cls-4" d="M8.09,124.13a58.6,58.6,0,0,0-7.76-1L0,124.82a50,50,0,0,0,6.36,3.41c.82.31,2.13-.7,3.22-1.1C9.09,126.08,8.8,124.3,8.09,124.13Z"/><path class="cls-4" d="M53.25,158.26a15,15,0,0,0-2.92,2.13c1.23,1.1,1.93,2.05,2.23,1.93a31.7,31.7,0,0,0,5.74-2.7c.38-.24,0-1.72-.07-2.63A49.07,49.07,0,0,0,53.25,158.26Z"/><path class="cls-4" d="M269.75,131.1a5.2,5.2,0,0,0-1.63,3.12c-.1.48,1,1.69,1.53,1.69a4.15,4.15,0,0,0,2.88-1.08,30.46,30.46,0,0,0,2.88-4.36l-1-1.13C272.83,129.9,271.09,130.2,269.75,131.1Z"/><path class="cls-4" d="M603.52,263.28l.18-1.41a58.71,58.71,0,0,0-6.75-2.35c-.82-.18-1.9.82-2.86,1.28.61.83,1.15,2.29,1.85,2.37A66,66,0,0,0,603.52,263.28Z"/><path class="cls-4" d="M1030.42,494.93l-10.57-9.34C1022.09,492.49,1025.06,495.19,1030.42,494.93Z"/><path class="cls-4" d="M317.84,332.25c1.14.5,2.59,1.72,3.34,1.38a39.68,39.68,0,0,0,5.85-3.9l-.41-.89a47,47,0,0,0-6.64,1C319.11,330.07,318.55,331.41,317.84,332.25Z"/><path class="cls-4" d="M669.36,95.33,675,93.82l-1.38-4.4-5.22,3.7Z"/><path class="cls-4" d="M875.37,370.33c5.17-1.83,8.55-6.58,7.8-10.47C880.3,363.72,877.84,367,875.37,370.33Z"/><path class="cls-4" d="M558.24,172.14c.4-3.51.68-6.06,1-8.62l-1.64-.21C553.87,166.7,553.81,167.81,558.24,172.14Z"/><path class="cls-4" d="M897.1,443.62l10.74-7.51-.78-1.49L896,441.93Z"/><path class="cls-4" d="M628,259.28c-2.61,1.63-7.36-.12-8.07,4.53l1,1.6,8.08-4.56C628.64,260.33,628.32,259.8,628,259.28Z"/><path class="cls-4" d="M696.24,20.56l2,1.53,3.85-3.8-3.28-3Q697.53,17.95,696.24,20.56Z"/><path class="cls-4" d="M284.51,127.42a14.29,14.29,0,0,0,2.79.43c.85,0,1.73-.72,2.51-.59,3.39.57,2.66-1.38,2.37-3.56a38.55,38.55,0,0,0-5.9,1.36C285.5,125.37,285.09,126.61,284.51,127.42Z"/><path class="cls-4" d="M911.29,403.15c-.27-2.44-.53-4.87-.79-7.31l-2.26.16c.12,2.44.23,4.88.35,7.32Z"/><path class="cls-4" d="M201.35,44.09c.17-2,.33-4,.5-5.93l-3-.2a39,39,0,0,0-.33,5.49C198.55,43.71,200.37,43.88,201.35,44.09Z"/><path class="cls-4" d="M290.81,303.55c.05-2.91,1.33-6.09-3.94-7.46C288.09,299.09,285.19,303.18,290.81,303.55Z"/><path class="cls-4" d="M328.9,195.94l-.86,1.49,6.74,3.82.66-1.27C333.7,197.85,332.23,195.25,328.9,195.94Z"/><path class="cls-4" d="M284.07,332.28l6.69,3.53c.36-.72.72-1.45,1.07-2.17l-6.71-3.44Z"/><path class="cls-4" d="M283.57,306.71c1.59.57,2.1,4.54,4.5,2l-2.56-7.27Z"/><path class="cls-4" d="M902.06,362.89v-9.2C898.47,354.71,898.63,358.86,902.06,362.89Z"/><path class="cls-4" d="M340.07,216l1.51-.35c-.42-2.41-.83-4.83-1.25-7.25l-1.94.1v4.14l-.15-.16a.5.5,0,0,1,0,.13h0Z"/><path class="cls-4" d="M199.77,67.61l-.45,1.21,3.33,3.79,1.43-.37c-.09-1.45.28-3.25-.45-4.24C203.11,67.3,201.11,67.7,199.77,67.61Z"/><path class="cls-4" d="M338.67,361.52A6.38,6.38,0,0,0,336,364.2c-.21.47,1,1.61,2.15,3.22a39.39,39.39,0,0,0,2.63-4.55C340.83,362.71,339,361.32,338.67,361.52Z"/><path class="cls-4" d="M347.68,355.76c0-.87.05-1.74.07-2.62l-5.59,3.49C345.65,360.91,345.85,355.59,347.68,355.76Z"/></g><path class="cls-5" d="M210.2,182l-.14.05-9.26,1.76h0a.54.54,0,0,1-.61-.36c-.16-.46-.34-.93-.52-1.39-2.37-6.07-4.38-10.85-5.66-13.75a.55.55,0,0,1,.14-.62l6.35-5.52a4.62,4.62,0,0,0,1.56-4,.54.54,0,0,0-.77-.41l-10.16,4.94a.55.55,0,0,1-.61-.09l-.15-.14a11.83,11.83,0,0,0-1.65-1.28.52.52,0,0,1-.21-.25,7.63,7.63,0,0,0-.77-1.52s-.05,0-.07,0a4.75,4.75,0,0,0,.26,1.94h0a11.35,11.35,0,0,0-.67,2.14.68.68,0,0,0,0,.14.54.54,0,0,1-.46.43l-11.26,1.55a.54.54,0,0,0-.41.78,4.61,4.61,0,0,0,3.5,2.44l8.6,1.09a.53.53,0,0,1,.46.42c.64,3.1,1.78,8.16,3.37,14.49.12.48.26,1,.39,1.44a.55.55,0,0,1-.29.65l-8.49,3.9-.14.05-25.9,4a.54.54,0,0,0-.3.92,4.7,4.7,0,0,0,2.77,1.28l3.35.33,16,1.57,2.53.25a.52.52,0,0,1,.45.36l1.45,4.23a2.12,2.12,0,0,0,2.68,1.32l.23-.08a2.13,2.13,0,0,0,1.32-2.69l-.63-1.83a.54.54,0,0,1,.57-.71l.55.05,8.18.81a.54.54,0,0,1,.47.37c.48,1.5,1,3,1.45,4.5,1.7,4.61,3.15,8,3.74,9.14.41.83.85,1.66.85,1.66l.31.56q.38.69.81,1.35l0,0c.93,1.66,1.93,3.27,3,4.85a1.74,1.74,0,0,0,.84.66,1.58,1.58,0,0,0,1,0,1.61,1.61,0,0,0,.83-.62,1.7,1.7,0,0,0,.3-1q0-2.94-.34-5.87c0-.74-.08-1.26-.1-1.44s-.06-.49-.08-.64c0,0-.12-.93-.26-1.85-.21-1.3-1-4.87-2.27-9.61l-1.41-4.48a.56.56,0,0,1,.16-.57l.05,0,6.21-5.42.42-.36a.54.54,0,0,1,.88.25l.55,1.86a2.13,2.13,0,0,0,2.63,1.42l.23-.07a2.11,2.11,0,0,0,1.42-2.63l-1.27-4.28a.54.54,0,0,1,.16-.56l1.91-1.67,10-8.72,2.09-1.82,2.54-2.21a4.6,4.6,0,0,0,1.51-2.66.54.54,0,0,0-.77-.57Z"/><path class="cls-6" d="M797.22,140.9c0-.05,0-.09,0-.13l0-.4a.88.88,0,0,0,0-.16c0-.13,0-.25,0-.37a.88.88,0,0,1,0-.16c0-.15-.05-.29-.08-.44a.15.15,0,0,1,0-.07l-.12-.48c0-.06,0-.12,0-.18l-.09-.31-.06-.2a.56.56,0,0,1,0-.12h0A11.17,11.17,0,1,0,776.38,147c.57,1,1.11,2,1.65,3l1.08,2h0l2,3.72,4.94,9.18h0l8.34-15.49.63-1.15.08-.13.66-1.17a11.41,11.41,0,0,0,.88-1.95,11.64,11.64,0,0,0,.4-1.57,10.8,10.8,0,0,0,.18-2C797.23,141.25,797.23,141.07,797.22,140.9Zm-11.16,6.63a6.43,6.43,0,1,1,6.43-6.42A6.42,6.42,0,0,1,786.06,147.53Z"/><path class="cls-5" d="M212,238.57a2.2,2.2,0,0,1-2.15-1.75c-.39-1.84-.82-3.71-1.28-5.58a2.2,2.2,0,0,1,4.28-1.05c.47,1.91.91,3.84,1.31,5.72a2.2,2.2,0,0,1-1.7,2.61A2.49,2.49,0,0,1,212,238.57Z"/><path class="cls-5" d="M230.69,541.37h-.09A79.35,79.35,0,0,1,218.79,540a2.21,2.21,0,0,1,.84-4.33A75.79,75.79,0,0,0,230.78,537a2.2,2.2,0,0,1-.09,4.4Zm11.55-.32a2.21,2.21,0,0,1-.21-4.4,95.93,95.93,0,0,0,11.17-1.74,2.2,2.2,0,0,1,.92,4.31A99.93,99.93,0,0,1,242.45,541ZM208.07,537a2.19,2.19,0,0,1-.75-.13A80.6,80.6,0,0,1,196.48,532a2.2,2.2,0,1,1,2.07-3.88,78.3,78.3,0,0,0,10.27,4.58,2.2,2.2,0,0,1-.75,4.27Zm56.75-.73a2.2,2.2,0,0,1-.67-4.29c3.49-1.14,7.08-2.47,10.66-4a2.2,2.2,0,1,1,1.7,4.06c-3.69,1.56-7.4,2.94-11,4.11A2.24,2.24,0,0,1,264.82,536.25Zm21.33-8.92a2.2,2.2,0,0,1-1-4.16c3.3-1.68,6.58-3.48,10-5.5a2.2,2.2,0,1,1,2.23,3.8c-3.52,2.06-6.88,3.91-10.26,5.63A2.22,2.22,0,0,1,286.15,527.33Zm-98.45-1.16a2.19,2.19,0,0,1-1.28-.41,102.19,102.19,0,0,1-9.19-7.42,2.2,2.2,0,1,1,3-3.26,98.11,98.11,0,0,0,8.79,7.09,2.2,2.2,0,0,1-1.28,4ZM306.15,515.7a2.2,2.2,0,0,1-1.18-4.06c3.28-2.09,6.43-4.26,9.36-6.46a2.2,2.2,0,1,1,2.64,3.51c-3,2.27-6.25,4.52-9.64,6.67A2.18,2.18,0,0,1,306.15,515.7Zm-135.58-5a2.21,2.21,0,0,1-1.65-.74c-2.58-2.89-5.07-6-7.4-9.17a2.2,2.2,0,0,1,3.56-2.6c2.24,3.08,4.64,6.05,7.13,8.84a2.2,2.2,0,0,1-.18,3.11A2.16,2.16,0,0,1,170.57,510.7Zm154-8.92a2.2,2.2,0,0,1-1.48-3.83c2.83-2.57,5.44-5.2,8-8a2.2,2.2,0,1,1,3.27,2.94,114.56,114.56,0,0,1-8.3,8.34A2.15,2.15,0,0,1,324.55,501.78ZM157,492a2.22,2.22,0,0,1-1.9-1.08c-2-3.38-3.84-6.88-5.5-10.41a2.2,2.2,0,1,1,4-1.87c1.61,3.41,3.39,6.78,5.31,10a2.2,2.2,0,0,1-.77,3A2.18,2.18,0,0,1,157,492Zm183-7.37a2.13,2.13,0,0,1-1.31-.44,2.19,2.19,0,0,1-.45-3.08c2-2.75,4.1-5.73,6.49-9.39a2.2,2.2,0,0,1,3.69,2.41c-2.44,3.73-4.55,6.79-6.65,9.61A2.21,2.21,0,0,1,340,484.66ZM147.14,471.12a2.21,2.21,0,0,1-2.08-1.47,115.23,115.23,0,0,1-3.38-11.28,2.2,2.2,0,1,1,4.27-1.05,111.19,111.19,0,0,0,3.26,10.85,2.21,2.21,0,0,1-1.33,2.82A2.45,2.45,0,0,1,147.14,471.12Zm205.64-5.7a2.11,2.11,0,0,1-1.18-.35,2.19,2.19,0,0,1-.67-3c1.84-2.87,4.05-6.27,6.5-9.68a2.2,2.2,0,0,1,3.58,2.56c-2.39,3.34-4.56,6.67-6.37,9.5A2.21,2.21,0,0,1,352.78,465.42Zm-211.1-16.74a2.2,2.2,0,0,1-2.18-1.91,97,97,0,0,1-.81-11.81,2.2,2.2,0,0,1,2.19-2.21h0a2.21,2.21,0,0,1,2.21,2.19,92.1,92.1,0,0,0,.77,11.26,2.2,2.2,0,0,1-1.9,2.47Zm224.7-1.9a2.2,2.2,0,0,1-1.65-3.66,98,98,0,0,1,8.3-8.38A2.2,2.2,0,0,1,376,438a93.82,93.82,0,0,0-7.94,8A2.17,2.17,0,0,1,366.38,446.78Zm17.14-15.4a2.2,2.2,0,0,1-1.28-4c2.66-1.89,5.52-3.76,8.5-5.53l1.39-.82a2.2,2.2,0,1,1,2.2,3.81l-1.34.79c-2.87,1.72-5.63,3.51-8.19,5.34A2.19,2.19,0,0,1,383.52,431.38Zm-241.91-5.76-.29,0a2.2,2.2,0,0,1-1.9-2.47,78.32,78.32,0,0,1,2.45-11.62,2.2,2.2,0,0,1,4.23,1.24,73.52,73.52,0,0,0-2.31,11A2.21,2.21,0,0,1,141.61,425.62Zm261.86-5.82a2.21,2.21,0,0,1-.93-4.2c3.55-1.65,7.22-3.15,10.89-4.45a2.2,2.2,0,1,1,1.47,4.15c-3.54,1.26-7.08,2.7-10.5,4.29A2.21,2.21,0,0,1,403.47,419.8Zm21.76-7.72a2.2,2.2,0,0,1-.54-4.33c3.68-.94,7.44-1.73,11.48-2.42a2.2,2.2,0,1,1,.74,4.34c-3.92.67-7.57,1.44-11.14,2.34A2,2,0,0,1,425.23,412.08Zm22.76-4a2.2,2.2,0,0,1-.25-4.39q3.25-.37,6.32-.69l5.18-.56a2.2,2.2,0,1,1,.5,4.37c-1.69.2-3.4.38-5.22.57-2,.21-4.12.43-6.28.68Zm22.91-3.05a2.2,2.2,0,0,1-.49-4.35,28.51,28.51,0,0,0,9.88-4,2.21,2.21,0,0,1,2.49,3.64A32.72,32.72,0,0,1,471.4,405,2.14,2.14,0,0,1,470.9,405.06Zm-322.83-1.51a2.2,2.2,0,0,1-2-3.13,91.38,91.38,0,0,1,5.7-10.36,2.2,2.2,0,0,1,3.72,2.36,86.62,86.62,0,0,0-5.43,9.86A2.21,2.21,0,0,1,148.07,403.55ZM488.81,392a2.21,2.21,0,0,1-2-3.14,21.36,21.36,0,0,0,2-9.19c0-.34,0-.68,0-1a2.2,2.2,0,0,1,4.4-.18q0,.6,0,1.2a26,26,0,0,1-2.43,11.06A2.21,2.21,0,0,1,488.81,392Zm-328.52-8a2.23,2.23,0,0,1-1.34-.45,2.2,2.2,0,0,1-.41-3.09c2.08-2.72,4.42-5.6,7.35-9.06a2.2,2.2,0,0,1,3.36,2.84c-2.88,3.41-5.17,6.24-7.22,8.9A2.19,2.19,0,0,1,160.29,384Zm328.27-14.46a2.19,2.19,0,0,1-2.06-1.44,80.1,80.1,0,0,0-4.73-10.2,2.2,2.2,0,0,1,3.87-2.09,82.26,82.26,0,0,1,5,10.77,2.19,2.19,0,0,1-2.07,3Zm-313.45-3.28a2.21,2.21,0,0,1-1.67-3.65c2.37-2.74,4.91-5.71,7.44-8.78a2.2,2.2,0,1,1,3.4,2.79c-2.55,3.11-5.11,6.1-7.5,8.87A2.19,2.19,0,0,1,175.11,366.25Zm302.76-17.19A2.2,2.2,0,0,1,476,348c-1.28-2.08-2.58-4.16-4-6.35q-1.08-1.71-2.16-3.45a2.2,2.2,0,1,1,3.73-2.34c.72,1.16,1.44,2.31,2.16,3.44,1.38,2.21,2.69,4.29,4,6.39a2.21,2.21,0,0,1-1.87,3.36Zm-288.17-.75a2.21,2.21,0,0,1-1.78-3.51c2.38-3.22,4.48-6.29,6.43-9.4a2.2,2.2,0,1,1,3.73,2.34c-2,3.2-4.17,6.37-6.61,9.68A2.21,2.21,0,0,1,189.7,348.31Zm276-18.95a2.21,2.21,0,0,1-1.9-1.09c-2.15-3.68-4-7-5.63-10.25a2.2,2.2,0,0,1,3.93-2c1.59,3.14,3.39,6.42,5.5,10a2.21,2.21,0,0,1-.79,3A2.23,2.23,0,0,1,465.72,329.36Zm-263.81-.64a2.09,2.09,0,0,1-1-.24,2.2,2.2,0,0,1-1-3c1.72-3.37,3.28-6.85,4.65-10.34a2.2,2.2,0,0,1,4.1,1.61c-1.42,3.62-3,7.23-4.82,10.73A2.21,2.21,0,0,1,201.91,328.72Zm253.45-20a2.21,2.21,0,0,1-2.05-1.38,100.28,100.28,0,0,1-3.76-11.2,2.2,2.2,0,0,1,4.26-1.14,96.08,96.08,0,0,0,3.59,10.7,2.2,2.2,0,0,1-1.22,2.86A2.17,2.17,0,0,1,455.36,308.71Zm-245-1.46a2.08,2.08,0,0,1-.6-.09,2.2,2.2,0,0,1-1.52-2.72c1-3.57,1.89-7.28,2.6-11a2.2,2.2,0,0,1,4.33.82c-.73,3.89-1.64,7.73-2.69,11.43A2.21,2.21,0,0,1,210.33,307.25Zm239.15-20.82a2.2,2.2,0,0,1-2.19-1.94,75,75,0,0,1-.51-8.7c0-1.06,0-2.13.07-3.19a2.2,2.2,0,1,1,4.4.19c0,1-.07,2-.07,3a70.53,70.53,0,0,0,.49,8.18,2.2,2.2,0,0,1-1.93,2.44A1.18,1.18,0,0,1,449.48,286.43Zm-234.84-1.86h-.22a2.21,2.21,0,0,1-2-2.42c.39-3.74.62-7.56.7-11.36a2.2,2.2,0,0,1,4.4.09c-.08,3.92-.32,7.86-.72,11.72A2.2,2.2,0,0,1,214.64,284.57ZM450.5,263.43a2.28,2.28,0,0,1-.45,0,2.21,2.21,0,0,1-1.71-2.61,84,84,0,0,1,3.25-11.41,2.2,2.2,0,1,1,4.14,1.49,80.45,80.45,0,0,0-3.08,10.82A2.19,2.19,0,0,1,450.5,263.43Zm-235.38-2a2.2,2.2,0,0,1-2.19-2.07c-.22-3.75-.59-7.57-1.11-11.34a2.2,2.2,0,1,1,4.37-.59c.52,3.88.91,7.81,1.13,11.67a2.2,2.2,0,0,1-2.06,2.33Zm469.76-7.28h-.15a75.6,75.6,0,0,1-11.76-1.7,2.2,2.2,0,0,1,1-4.3A72.74,72.74,0,0,0,685,249.79a2.2,2.2,0,0,1-.14,4.4Zm11.54-.22a2.21,2.21,0,0,1-.23-4.4c1.34-.13,2.69-.31,4-.53,2.34-.39,4.69-.9,7-1.52a2.2,2.2,0,0,1,1.15,4.25,73.23,73.23,0,0,1-7.42,1.61c-1.42.24-2.86.43-4.28.58Zm-34-4.74a2.27,2.27,0,0,1-.76-.14,114.32,114.32,0,0,1-10.82-4.69,2.2,2.2,0,0,1,1.95-4,110.66,110.66,0,0,0,10.4,4.51,2.2,2.2,0,0,1-.77,4.27ZM718.65,248a2.2,2.2,0,0,1-.89-4.21,84.26,84.26,0,0,0,9.93-5.28,2.2,2.2,0,0,1,2.32,3.74,86.48,86.48,0,0,1-10.46,5.56A2.21,2.21,0,0,1,718.65,248Zm-260.39-6.25a2.11,2.11,0,0,1-1-.24,2.21,2.21,0,0,1-1-3,106.13,106.13,0,0,1,5.92-10.2,2.2,2.2,0,1,1,3.68,2.41,104.93,104.93,0,0,0-5.67,9.78A2.18,2.18,0,0,1,458.26,241.71Zm183.37-2.6a2.2,2.2,0,0,1-1.12-.31c-3.12-1.84-6.36-3.87-9.89-6.2a2.2,2.2,0,1,1,2.43-3.68c3.47,2.29,6.64,4.28,9.7,6.09a2.2,2.2,0,0,1-1.12,4.1Zm96.65-3.25a2.17,2.17,0,0,1-1.72-.83,2.2,2.2,0,0,1,.35-3.09c2.85-2.28,5.71-4.81,8.5-7.51a2.2,2.2,0,1,1,3.07,3.15c-2.89,2.81-5.86,5.44-8.83,7.8A2.14,2.14,0,0,1,738.28,235.86Zm-116-9.42A2.21,2.21,0,0,1,621,226c-2.9-2-5.84-4.12-8.68-6.15l-.77-.55a2.2,2.2,0,1,1,2.55-3.59l.78.55c2.83,2,5.76,4.11,8.65,6.14a2.2,2.2,0,0,1-1.27,4Zm-151.38-4.05a2.2,2.2,0,0,1-1.71-3.59,115.17,115.17,0,0,1,7.92-8.74,2.21,2.21,0,0,1,3.11,3.13,110.35,110.35,0,0,0-7.62,8.4A2.17,2.17,0,0,1,470.89,222.39Zm284-2.59a2.2,2.2,0,0,1-1.65-3.65c2.41-2.76,4.83-5.74,7.19-8.85a2.2,2.2,0,0,1,3.51,2.66c-2.42,3.19-4.91,6.25-7.39,9.09A2.17,2.17,0,0,1,754.88,219.8Zm-151.5-6.73a2.28,2.28,0,0,1-1.26-.39c-3.53-2.46-6.65-4.57-9.53-6.44a2.2,2.2,0,0,1,2.4-3.69c2.92,1.9,6.08,4,9.65,6.51a2.2,2.2,0,0,1-1.26,4Zm-116.1-6.95a2.2,2.2,0,0,1-1.38-3.92,103.75,103.75,0,0,1,9.61-6.87,2.2,2.2,0,1,1,2.35,3.72,100,100,0,0,0-9.2,6.58A2.2,2.2,0,0,1,487.28,206.12Zm281.61-4.7a2.24,2.24,0,0,1-1.23-.37,2.21,2.21,0,0,1-.6-3.06c2.07-3.07,4.14-6.32,6.16-9.66a2.2,2.2,0,1,1,3.77,2.28c-2.06,3.4-4.17,6.71-6.27,9.84A2.21,2.21,0,0,1,768.89,201.42Zm-184.95-.88a2.18,2.18,0,0,1-1.1-.29c-3.52-2-6.82-3.76-10.08-5.3a2.2,2.2,0,0,1,1.89-4c3.36,1.59,6.76,3.38,10.39,5.46a2.2,2.2,0,0,1-1.1,4.11Zm-77.11-6.71a2.2,2.2,0,0,1-.93-4.2A85.46,85.46,0,0,1,517,185.34a2.2,2.2,0,1,1,1.3,4.21,82.27,82.27,0,0,0-10.5,4.07A2.21,2.21,0,0,1,506.83,193.83ZM563,190.78a2.27,2.27,0,0,1-.72-.12,80.46,80.46,0,0,0-10.85-2.94,2.2,2.2,0,0,1,.84-4.32,85.79,85.79,0,0,1,11.44,3.09,2.2,2.2,0,0,1-.71,4.29Zm-34.14-3.66a2.2,2.2,0,0,1-.31-4.38,70.93,70.93,0,0,1,9.85-.7h0c.69,0,1.38,0,2.06,0a2.21,2.21,0,0,1-.13,4.41c-.64,0-1.29,0-1.93,0h0a66.61,66.61,0,0,0-9.23.65Z"/><path class="cls-5" d="M781.13,181.18a2.26,2.26,0,0,1-1.06-.27,2.19,2.19,0,0,1-.87-3c.9-1.66,1.82-3.36,2.71-5.07a2.2,2.2,0,1,1,3.9,2c-.9,1.73-1.83,3.46-2.75,5.15A2.19,2.19,0,0,1,781.13,181.18Z"/></g></g></g></g></svg>