<svg xmlns="http://www.w3.org/2000/svg" viewBox="0 0 300.45 65.22"><defs><style>.cls-1{fill:#04014e;}.cls-2{fill:#016af1;}.cls-3{fill:#00ace4;}</style></defs><g id="Capa_2" data-name="Capa 2"><g id="Header"><polygon class="cls-1" points="217.6 0.03 212.84 0.03 212.84 47.86 222.34 47.86 222.34 28.09 239.87 28.09 239.87 19.76 222.34 19.76 222.34 8.32 240.05 8.32 240.05 0.03 222.34 0.03 217.6 0.03"/><polygon class="cls-1" points="251.97 28.31 260.86 28.31 260.86 19.61 251.97 19.61 251.97 8.35 270.53 8.35 270.53 0.06 251.97 0.06 247.23 0.06 242.47 0.06 242.47 47.89 247.23 47.89 251.97 47.89 270.53 47.89 270.53 39.59 251.97 39.59 251.97 28.31"/><rect class="cls-1" x="272.72" y="39.5" width="27.73" height="8.36"/><rect class="cls-1" x="272.72" width="27.73" height="8.36"/><path class="cls-2" d="M285.17,19.61a15.93,15.93,0,0,1-12.39,12v5.77h8.7v-9h9.62V19.61Z"/><path class="cls-3" d="M285.17,19.61h-3.69v-9.1h-8.71v9.1h-9.84v8.7h9.84v3.28A15.93,15.93,0,0,0,285.17,19.61Z"/><path class="cls-2" d="M16.65,14.56A16,16,0,0,0,4.89,19.44,16,16,0,0,0,0,31.21,16,16,0,0,0,4.89,43a16,16,0,0,0,11.76,4.89,16,16,0,0,0,7.23-1.66v1.69H33.3V31.21a16,16,0,0,0-4.87-11.77A16,16,0,0,0,16.65,14.56Zm5.11,21.76a7,7,0,0,1-5.11,2.12,7.24,7.24,0,0,1-7.23-7.23A7.24,7.24,0,0,1,16.65,24a7.24,7.24,0,0,1,7.23,7.23A7,7,0,0,1,21.76,36.32Z"/><path class="cls-2" d="M52.76,55.83q-4.9,0-6.93-5.17H36.24a16.06,16.06,0,0,0,.7,3.12q4.74,11.44,15.82,11.44,10.65,0,15.56-10.75a16.09,16.09,0,0,0,.93-3.81H59.66Q57.64,55.84,52.76,55.83Z"/><path class="cls-2" d="M52.74,14.56a16.22,16.22,0,0,0-11.91,4.93,16.26,16.26,0,0,0-4.94,11.92A16.21,16.21,0,0,0,40.83,43.3a16.83,16.83,0,0,0,23.8,0,16.2,16.2,0,0,0,4.93-11.89,16.25,16.25,0,0,0-4.93-11.92A16.2,16.2,0,0,0,52.74,14.56Zm5.17,22a7.31,7.31,0,0,1-12.48-5.17,7.3,7.3,0,0,1,12.48-5.17,7.29,7.29,0,0,1,0,10.34Z"/><path class="cls-2" d="M88.4,14.56a16,16,0,0,0-11.78,4.89,16.05,16.05,0,0,0-4.87,11.76A16.09,16.09,0,0,0,76.62,43,16,16,0,0,0,88.4,47.89q10.78,0,15.66-11H92.85a6.87,6.87,0,0,1-4.45,1.55q-4.38,0-6.57-4.27h23a17.41,17.41,0,0,0,.26-3,16,16,0,0,0-4.89-11.76A16,16,0,0,0,88.4,14.56ZM82.26,27.4a7.22,7.22,0,0,1,12.28,0Z"/><path class="cls-2" d="M140.94,31.18a16,16,0,0,0-4.89-11.76,16,16,0,0,0-11.76-4.89,15.87,15.87,0,0,0-11.39,4.53,16.79,16.79,0,0,0-5.23,11.25h0V47.86h9.42V31.18a7.23,7.23,0,0,1,14.46,0v.16a.13.13,0,0,1,0,.1h0V47.83h9.42V31.68h0v-.14A2,2,0,0,0,140.94,31.18Z"/><path class="cls-2" d="M199.83,14.53V31.21a7.24,7.24,0,0,1-14.47,0V31a.13.13,0,0,1,0-.09h0V14.56h-9.42V30.71h0v.14a2,2,0,0,0,0,.36A16,16,0,0,0,180.84,43a16,16,0,0,0,11.76,4.89,16.29,16.29,0,0,0,6.78-1.41v18.7h9.87V32.07h0V14.53Z"/><path class="cls-2" d="M160.18,38.47A7.24,7.24,0,0,1,153,31.21,7.23,7.23,0,0,1,165.19,26l8-5.2a16.59,16.59,0,0,0-24.73-1.35,16,16,0,0,0-4.89,11.76A16.07,16.07,0,0,0,148.42,43a16.63,16.63,0,0,0,25.43-2.24l-7.8-5.34A7,7,0,0,1,160.18,38.47Z"/></g></g></svg>